<svg xmlns="http://www.w3.org/2000/svg" xmlns:xlink="http://www.w3.org/1999/xlink" width="500" zoomAndPan="magnify" viewBox="0 0 375 374.999991" height="500" preserveAspectRatio="xMidYMid meet" version="1.0"><defs><g/><clipPath id="ecdfea96e4"><path d="M 126 66.019531 L 249 66.019531 L 249 209.269531 L 126 209.269531 Z M 126 66.019531 " clip-rule="nonzero"/></clipPath><clipPath id="ec787440fb"><path d="M 130 70.117188 L 245 70.117188 L 245 205.117188 L 130 205.117188 Z M 130 70.117188 " clip-rule="nonzero"/></clipPath><clipPath id="85bc1ab58b"><path d="M 143.898438 117.636719 L 230.898438 117.636719 L 230.898438 157.386719 L 143.898438 157.386719 Z M 143.898438 117.636719 " clip-rule="nonzero"/></clipPath></defs><rect x="-37.5" width="450" fill="#ffffff" y="-37.499999" height="449.999989" fill-opacity="1"/><rect x="-37.5" width="450" fill="#000000" y="-37.499999" height="449.999989" fill-opacity="1"/><g clip-path="url(#ecdfea96e4)"><path fill="#ffffff" d="M 187.484375 66.042969 L 171.828125 73.621094 L 157.394531 67.785156 L 129.457031 77.308594 C 129.457031 77.308594 136.824219 92.039062 135.289062 107.699219 C 133.757812 123.355469 121.421875 161.125 129.148438 173.089844 C 138.667969 187.828125 165.378906 196.421875 174.589844 201.335938 C 179.75 204.085938 184.367188 207.09375 187.484375 209.234375 C 190.601562 207.09375 195.21875 204.085938 200.378906 201.335938 C 209.589844 196.421875 236.296875 187.828125 245.816406 173.089844 C 253.542969 161.125 241.210938 123.355469 239.675781 107.699219 C 238.140625 92.042969 245.507812 77.308594 245.507812 77.308594 L 217.574219 67.785156 L 203.136719 73.621094 Z M 187.484375 66.042969 " fill-opacity="1" fill-rule="nonzero"/></g><g clip-path="url(#ec787440fb)"><path fill="#000000" d="M 187.449219 70.140625 L 172.695312 77.28125 L 159.09375 71.78125 L 132.773438 80.757812 C 132.773438 80.757812 139.714844 94.640625 138.269531 109.398438 C 136.824219 124.15625 125.199219 159.757812 132.484375 171.035156 C 141.449219 184.925781 166.617188 193.027344 175.296875 197.65625 C 180.160156 200.25 184.511719 203.085938 187.449219 205.101562 C 190.382812 203.085938 194.734375 200.25 199.597656 197.65625 C 208.277344 193.027344 233.445312 184.925781 242.414062 171.035156 C 249.695312 159.757812 238.074219 124.15625 236.625 109.398438 C 235.179688 94.644531 242.125 80.757812 242.125 80.757812 L 215.800781 71.78125 L 202.199219 77.28125 Z M 187.449219 70.140625 " fill-opacity="1" fill-rule="nonzero"/></g><g clip-path="url(#85bc1ab58b)"><path fill="#ffbe00" d="M 149.742188 151.769531 C 153.394531 155.421875 158.25 157.496094 163.414062 157.605469 C 163.558594 157.609375 163.703125 157.609375 163.847656 157.609375 C 166.207031 157.609375 168.523438 157.199219 170.738281 156.382812 C 173.160156 155.492188 175.363281 154.152344 177.277344 152.40625 C 177.5 152.203125 177.722656 151.992188 177.941406 151.769531 C 178.144531 151.566406 178.339844 151.363281 178.523438 151.160156 L 187.378906 142.308594 L 187.390625 142.320312 L 189.738281 139.886719 L 192.242188 137.46875 L 192.230469 137.460938 L 201.101562 128.589844 L 201.152344 128.535156 C 201.285156 128.386719 201.429688 128.234375 201.582031 128.085938 C 201.730469 127.933594 201.882812 127.789062 202.03125 127.65625 L 202.035156 127.652344 C 207.394531 122.757812 215.617188 122.949219 220.75 128.085938 C 226.035156 133.367188 226.035156 141.96875 220.75 147.253906 C 215.617188 152.390625 207.394531 152.582031 202.035156 147.6875 L 202.03125 147.683594 C 201.882812 147.546875 201.734375 147.402344 201.582031 147.253906 C 201.433594 147.101562 201.289062 146.953125 201.152344 146.804688 L 201.101562 146.746094 L 198.488281 144.132812 L 201.316406 141.308594 L 191.242188 141.390625 L 191.15625 151.464844 L 193.972656 148.648438 L 196.480469 151.160156 C 196.667969 151.363281 196.863281 151.566406 197.066406 151.765625 C 197.285156 151.988281 197.507812 152.199219 197.726562 152.398438 C 199.644531 154.148438 201.84375 155.492188 204.269531 156.382812 C 206.484375 157.195312 208.796875 157.609375 211.160156 157.609375 C 211.304688 157.609375 211.449219 157.605469 211.59375 157.605469 C 216.757812 157.496094 221.609375 155.421875 225.265625 151.765625 C 227.167969 149.863281 228.640625 147.644531 229.644531 145.167969 C 230.613281 142.777344 231.105469 140.253906 231.105469 137.667969 C 231.105469 135.078125 230.613281 132.554688 229.644531 130.164062 C 228.640625 127.6875 227.167969 125.46875 225.265625 123.566406 C 221.609375 119.914062 216.757812 117.839844 211.59375 117.730469 C 209.082031 117.675781 206.617188 118.085938 204.269531 118.953125 C 201.847656 119.84375 199.644531 121.179688 197.730469 122.929688 C 197.511719 123.132812 197.285156 123.34375 197.066406 123.566406 C 196.863281 123.769531 196.667969 123.972656 196.480469 124.175781 L 187.714844 132.941406 L 187.710938 132.9375 L 182.984375 137.667969 L 173.960938 146.695312 L 173.90625 146.75 L 173.855469 146.804688 C 173.722656 146.953125 173.578125 147.101562 173.425781 147.253906 C 173.277344 147.402344 173.125 147.546875 172.976562 147.683594 L 172.972656 147.6875 C 167.617188 152.582031 159.394531 152.390625 154.257812 147.253906 C 151.699219 144.691406 150.289062 141.289062 150.289062 137.667969 C 150.289062 134.050781 151.699219 130.644531 154.257812 128.085938 C 156.90625 125.4375 160.375 124.105469 163.84375 124.105469 C 167.109375 124.105469 170.378906 125.28125 172.972656 127.652344 L 172.976562 127.65625 C 173.121094 127.789062 173.273438 127.933594 173.425781 128.085938 C 173.574219 128.234375 173.71875 128.386719 173.855469 128.535156 L 173.90625 128.589844 L 180.777344 135.464844 L 185.292969 130.949219 L 178.523438 124.179688 C 178.339844 123.976562 178.140625 123.773438 177.941406 123.570312 C 177.722656 123.351562 177.5 123.140625 177.28125 122.9375 C 175.363281 121.191406 173.164062 119.847656 170.738281 118.957031 C 168.386719 118.09375 165.925781 117.683594 163.414062 117.734375 C 158.25 117.84375 153.394531 119.917969 149.742188 123.570312 C 147.839844 125.472656 146.367188 127.695312 145.363281 130.171875 C 144.390625 132.558594 143.902344 135.085938 143.902344 137.671875 C 143.902344 140.261719 144.394531 142.785156 145.363281 145.175781 C 146.367188 147.648438 147.839844 149.867188 149.742188 151.769531 Z M 149.742188 151.769531 " fill-opacity="1" fill-rule="nonzero"/></g><g fill="#ffbe00" fill-opacity="1"><g transform="translate(84.073728, 232.228914)"><g><path d="M 4.15625 0 L 4.15625 -10.75 L 0.484375 -10.75 L 0.484375 -12.59375 L 10.15625 -12.59375 L 10.15625 -10.75 L 6.46875 -10.75 L 6.46875 0 Z M 4.15625 0 "/></g></g></g><g fill="#ffbe00" fill-opacity="1"><g transform="translate(94.704831, 232.228914)"><g><path d="M 1.21875 0 L 1.21875 -12.59375 L 3.53125 -12.59375 L 3.53125 -7.359375 L 9.1875 -7.359375 L 9.1875 -12.59375 L 11.484375 -12.59375 L 11.484375 0 L 9.1875 0 L 9.1875 -5.484375 L 3.53125 -5.484375 L 3.53125 0 Z M 1.21875 0 "/></g></g></g><g fill="#ffbe00" fill-opacity="1"><g transform="translate(107.404591, 232.228914)"><g><path d="M 1.21875 0 L 1.21875 -12.59375 L 9.453125 -12.59375 L 9.453125 -10.75 L 3.53125 -10.75 L 3.53125 -7.296875 L 8.90625 -7.296875 L 8.90625 -5.484375 L 3.53125 -5.484375 L 3.53125 -1.859375 L 9.453125 -1.859375 L 9.453125 0 Z M 1.21875 0 "/></g></g></g><g fill="#ffbe00" fill-opacity="1"><g transform="translate(117.801845, 232.228914)"><g/></g></g><g fill="#ffbe00" fill-opacity="1"><g transform="translate(122.083068, 232.228914)"><g><path d="M 1.21875 0 L 1.21875 -12.59375 L 5.53125 -12.59375 C 7 -12.59375 8.210938 -12.332031 9.171875 -11.8125 C 10.128906 -11.289062 10.835938 -10.554688 11.296875 -9.609375 C 11.753906 -8.671875 11.984375 -7.566406 11.984375 -6.296875 C 11.984375 -5.023438 11.753906 -3.914062 11.296875 -2.96875 C 10.835938 -2.03125 10.128906 -1.300781 9.171875 -0.78125 C 8.210938 -0.257812 7 0 5.53125 0 Z M 3.53125 -1.984375 L 5.421875 -1.984375 C 6.472656 -1.984375 7.304688 -2.148438 7.921875 -2.484375 C 8.535156 -2.828125 8.972656 -3.320312 9.234375 -3.96875 C 9.492188 -4.613281 9.625 -5.390625 9.625 -6.296875 C 9.625 -7.203125 9.492188 -7.976562 9.234375 -8.625 C 8.972656 -9.269531 8.535156 -9.765625 7.921875 -10.109375 C 7.304688 -10.460938 6.472656 -10.640625 5.421875 -10.640625 L 3.53125 -10.640625 Z M 3.53125 -1.984375 "/></g></g></g><g fill="#ffbe00" fill-opacity="1"><g transform="translate(134.872767, 232.228914)"><g><path d="M 1.21875 0 L 1.21875 -12.59375 L 9.453125 -12.59375 L 9.453125 -10.75 L 3.53125 -10.75 L 3.53125 -7.296875 L 8.90625 -7.296875 L 8.90625 -5.484375 L 3.53125 -5.484375 L 3.53125 -1.859375 L 9.453125 -1.859375 L 9.453125 0 Z M 1.21875 0 "/></g></g></g><g fill="#ffbe00" fill-opacity="1"><g transform="translate(145.270021, 232.228914)"><g><path d="M 4.875 0 L 0.265625 -12.59375 L 2.734375 -12.59375 L 6.296875 -2.359375 L 9.875 -12.59375 L 12.3125 -12.59375 L 7.703125 0 Z M 4.875 0 "/></g></g></g><g fill="#ffbe00" fill-opacity="1"><g transform="translate(157.843862, 232.228914)"><g><path d="M 5.53125 0.21875 C 4.601562 0.21875 3.785156 0.0625 3.078125 -0.25 C 2.367188 -0.570312 1.8125 -1.03125 1.40625 -1.625 C 1 -2.21875 0.789062 -2.941406 0.78125 -3.796875 L 3.203125 -3.796875 C 3.222656 -3.210938 3.4375 -2.71875 3.84375 -2.3125 C 4.25 -1.90625 4.804688 -1.703125 5.515625 -1.703125 C 6.117188 -1.703125 6.597656 -1.847656 6.953125 -2.140625 C 7.316406 -2.441406 7.5 -2.835938 7.5 -3.328125 C 7.5 -3.847656 7.335938 -4.25 7.015625 -4.53125 C 6.703125 -4.820312 6.28125 -5.054688 5.75 -5.234375 C 5.226562 -5.421875 4.664062 -5.613281 4.0625 -5.8125 C 3.09375 -6.144531 2.351562 -6.578125 1.84375 -7.109375 C 1.332031 -7.640625 1.078125 -8.34375 1.078125 -9.21875 C 1.066406 -9.957031 1.242188 -10.59375 1.609375 -11.125 C 1.972656 -11.664062 2.472656 -12.082031 3.109375 -12.375 C 3.742188 -12.664062 4.476562 -12.8125 5.3125 -12.8125 C 6.144531 -12.8125 6.882812 -12.660156 7.53125 -12.359375 C 8.175781 -12.066406 8.679688 -11.648438 9.046875 -11.109375 C 9.410156 -10.566406 9.601562 -9.925781 9.625 -9.1875 L 7.15625 -9.1875 C 7.144531 -9.625 6.972656 -10.015625 6.640625 -10.359375 C 6.316406 -10.703125 5.863281 -10.875 5.28125 -10.875 C 4.769531 -10.882812 4.34375 -10.757812 4 -10.5 C 3.65625 -10.238281 3.484375 -9.863281 3.484375 -9.375 C 3.484375 -8.957031 3.613281 -8.625 3.875 -8.375 C 4.144531 -8.132812 4.507812 -7.925781 4.96875 -7.75 C 5.425781 -7.582031 5.945312 -7.40625 6.53125 -7.21875 C 7.15625 -7 7.722656 -6.742188 8.234375 -6.453125 C 8.753906 -6.171875 9.171875 -5.789062 9.484375 -5.3125 C 9.796875 -4.84375 9.953125 -4.234375 9.953125 -3.484375 C 9.953125 -2.828125 9.785156 -2.21875 9.453125 -1.65625 C 9.117188 -1.09375 8.617188 -0.640625 7.953125 -0.296875 C 7.296875 0.046875 6.488281 0.21875 5.53125 0.21875 Z M 5.53125 0.21875 "/></g></g></g><g fill="#ffbe00" fill-opacity="1"><g transform="translate(168.582894, 232.228914)"><g><path d="M 1.21875 0 L 1.21875 -12.59375 L 9.453125 -12.59375 L 9.453125 -10.75 L 3.53125 -10.75 L 3.53125 -7.296875 L 8.90625 -7.296875 L 8.90625 -5.484375 L 3.53125 -5.484375 L 3.53125 -1.859375 L 9.453125 -1.859375 L 9.453125 0 Z M 1.21875 0 "/></g></g></g><g fill="#ffbe00" fill-opacity="1"><g transform="translate(178.980148, 232.228914)"><g><path d="M 6.9375 0.21875 C 5.65625 0.21875 4.554688 -0.0507812 3.640625 -0.59375 C 2.734375 -1.144531 2.035156 -1.910156 1.546875 -2.890625 C 1.054688 -3.867188 0.8125 -5 0.8125 -6.28125 C 0.8125 -7.5625 1.054688 -8.691406 1.546875 -9.671875 C 2.035156 -10.660156 2.734375 -11.429688 3.640625 -11.984375 C 4.554688 -12.535156 5.65625 -12.8125 6.9375 -12.8125 C 8.445312 -12.8125 9.679688 -12.4375 10.640625 -11.6875 C 11.609375 -10.9375 12.210938 -9.882812 12.453125 -8.53125 L 9.921875 -8.53125 C 9.765625 -9.21875 9.429688 -9.753906 8.921875 -10.140625 C 8.410156 -10.535156 7.734375 -10.734375 6.890625 -10.734375 C 5.722656 -10.734375 4.8125 -10.335938 4.15625 -9.546875 C 3.5 -8.753906 3.171875 -7.664062 3.171875 -6.28125 C 3.171875 -4.90625 3.5 -3.820312 4.15625 -3.03125 C 4.8125 -2.25 5.722656 -1.859375 6.890625 -1.859375 C 7.734375 -1.859375 8.410156 -2.039062 8.921875 -2.40625 C 9.429688 -2.769531 9.765625 -3.273438 9.921875 -3.921875 L 12.453125 -3.921875 C 12.210938 -2.628906 11.609375 -1.613281 10.640625 -0.875 C 9.679688 -0.144531 8.445312 0.21875 6.9375 0.21875 Z M 6.9375 0.21875 "/></g></g></g><g fill="#ffbe00" fill-opacity="1"><g transform="translate(192.237544, 232.228914)"><g/></g></g><g fill="#ffbe00" fill-opacity="1"><g transform="translate(196.518767, 232.228914)"><g><path d="M 1.21875 0 L 1.21875 -12.59375 L 6.28125 -12.59375 C 7.59375 -12.59375 8.59375 -12.289062 9.28125 -11.6875 C 9.96875 -11.082031 10.3125 -10.304688 10.3125 -9.359375 C 10.3125 -8.566406 10.097656 -7.929688 9.671875 -7.453125 C 9.242188 -6.984375 8.726562 -6.664062 8.125 -6.5 C 8.84375 -6.351562 9.4375 -5.992188 9.90625 -5.421875 C 10.375 -4.859375 10.609375 -4.195312 10.609375 -3.4375 C 10.609375 -2.4375 10.242188 -1.613281 9.515625 -0.96875 C 8.796875 -0.320312 7.78125 0 6.46875 0 Z M 3.53125 -7.3125 L 5.9375 -7.3125 C 6.582031 -7.3125 7.078125 -7.457031 7.421875 -7.75 C 7.773438 -8.050781 7.953125 -8.476562 7.953125 -9.03125 C 7.953125 -9.5625 7.78125 -9.976562 7.4375 -10.28125 C 7.101562 -10.59375 6.59375 -10.75 5.90625 -10.75 L 3.53125 -10.75 Z M 3.53125 -1.875 L 6.109375 -1.875 C 6.785156 -1.875 7.3125 -2.03125 7.6875 -2.34375 C 8.070312 -2.664062 8.265625 -3.113281 8.265625 -3.6875 C 8.265625 -4.28125 8.066406 -4.742188 7.671875 -5.078125 C 7.273438 -5.410156 6.738281 -5.578125 6.0625 -5.578125 L 3.53125 -5.578125 Z M 3.53125 -1.875 "/></g></g></g><g fill="#ffbe00" fill-opacity="1"><g transform="translate(207.869394, 232.228914)"><g><path d="M 1.21875 0 L 1.21875 -12.59375 L 3.53125 -12.59375 L 3.53125 -1.796875 L 9.109375 -1.796875 L 9.109375 0 Z M 1.21875 0 "/></g></g></g><g fill="#ffbe00" fill-opacity="1"><g transform="translate(217.780961, 232.228914)"><g><path d="M 6.078125 0.21875 C 5.160156 0.21875 4.328125 0.0351562 3.578125 -0.328125 C 2.835938 -0.691406 2.25 -1.242188 1.8125 -1.984375 C 1.375 -2.734375 1.15625 -3.679688 1.15625 -4.828125 L 1.15625 -12.59375 L 3.453125 -12.59375 L 3.453125 -4.8125 C 3.453125 -3.820312 3.6875 -3.085938 4.15625 -2.609375 C 4.632812 -2.128906 5.296875 -1.890625 6.140625 -1.890625 C 6.960938 -1.890625 7.613281 -2.128906 8.09375 -2.609375 C 8.570312 -3.085938 8.8125 -3.820312 8.8125 -4.8125 L 8.8125 -12.59375 L 11.125 -12.59375 L 11.125 -4.828125 C 11.125 -3.679688 10.894531 -2.734375 10.4375 -1.984375 C 9.976562 -1.242188 9.367188 -0.691406 8.609375 -0.328125 C 7.847656 0.0351562 7.003906 0.21875 6.078125 0.21875 Z M 6.078125 0.21875 "/></g></g></g><g fill="#ffbe00" fill-opacity="1"><g transform="translate(230.031013, 232.228914)"><g><path d="M 1.21875 0 L 1.21875 -12.59375 L 9.453125 -12.59375 L 9.453125 -10.75 L 3.53125 -10.75 L 3.53125 -7.296875 L 8.90625 -7.296875 L 8.90625 -5.484375 L 3.53125 -5.484375 L 3.53125 -1.859375 L 9.453125 -1.859375 L 9.453125 0 Z M 1.21875 0 "/></g></g></g><g fill="#ffbe00" fill-opacity="1"><g transform="translate(240.428268, 232.228914)"><g><path d="M 1.21875 0 L 1.21875 -12.59375 L 5.890625 -12.59375 C 6.890625 -12.59375 7.71875 -12.425781 8.375 -12.09375 C 9.039062 -11.757812 9.535156 -11.296875 9.859375 -10.703125 C 10.179688 -10.117188 10.34375 -9.460938 10.34375 -8.734375 C 10.34375 -8.035156 10.1875 -7.394531 9.875 -6.8125 C 9.5625 -6.226562 9.078125 -5.757812 8.421875 -5.40625 C 7.765625 -5.050781 6.921875 -4.875 5.890625 -4.875 L 3.53125 -4.875 L 3.53125 0 Z M 3.53125 -6.75 L 5.734375 -6.75 C 6.546875 -6.75 7.128906 -6.925781 7.484375 -7.28125 C 7.835938 -7.632812 8.015625 -8.117188 8.015625 -8.734375 C 8.015625 -9.359375 7.835938 -9.847656 7.484375 -10.203125 C 7.128906 -10.554688 6.546875 -10.734375 5.734375 -10.734375 L 3.53125 -10.734375 Z M 3.53125 -6.75 "/></g></g></g><g fill="#ffbe00" fill-opacity="1"><g transform="translate(251.347178, 232.228914)"><g><path d="M 1.21875 0 L 1.21875 -12.59375 L 5.84375 -12.59375 C 6.851562 -12.59375 7.6875 -12.421875 8.34375 -12.078125 C 9 -11.742188 9.488281 -11.285156 9.8125 -10.703125 C 10.132812 -10.117188 10.296875 -9.472656 10.296875 -8.765625 C 10.296875 -7.992188 10.09375 -7.289062 9.6875 -6.65625 C 9.289062 -6.019531 8.664062 -5.5625 7.8125 -5.28125 L 10.421875 0 L 7.78125 0 L 5.4375 -4.96875 L 3.53125 -4.96875 L 3.53125 0 Z M 3.53125 -6.65625 L 5.703125 -6.65625 C 6.472656 -6.65625 7.035156 -6.84375 7.390625 -7.21875 C 7.753906 -7.59375 7.9375 -8.082031 7.9375 -8.6875 C 7.9375 -9.289062 7.757812 -9.769531 7.40625 -10.125 C 7.050781 -10.488281 6.476562 -10.671875 5.6875 -10.671875 L 3.53125 -10.671875 Z M 3.53125 -6.65625 "/></g></g></g><g fill="#ffbe00" fill-opacity="1"><g transform="translate(262.553907, 232.228914)"><g><path d="M 1.21875 0 L 1.21875 -12.59375 L 3.53125 -12.59375 L 3.53125 0 Z M 1.21875 0 "/></g></g></g><g fill="#ffbe00" fill-opacity="1"><g transform="translate(267.302827, 232.228914)"><g><path d="M 1.21875 0 L 1.21875 -12.59375 L 3.53125 -12.59375 L 9.453125 -3.71875 L 9.453125 -12.59375 L 11.75 -12.59375 L 11.75 0 L 9.453125 0 L 3.53125 -8.859375 L 3.53125 0 Z M 1.21875 0 "/></g></g></g><g fill="#ffbe00" fill-opacity="1"><g transform="translate(280.272416, 232.228914)"><g><path d="M 4.15625 0 L 4.15625 -10.75 L 0.484375 -10.75 L 0.484375 -12.59375 L 10.15625 -12.59375 L 10.15625 -10.75 L 6.46875 -10.75 L 6.46875 0 Z M 4.15625 0 "/></g></g></g><g fill="#ffffff" fill-opacity="1"><g transform="translate(87.234373, 261.828924)"><g><path d="M 10.421875 -11.421875 L 10.171875 -10.28125 L 6.59375 -10.28125 L 4.421875 0 L 3.078125 0 L 5.265625 -10.28125 L 1.6875 -10.28125 L 1.921875 -11.421875 Z M 10.421875 -11.421875 "/></g></g></g><g fill="#ffffff" fill-opacity="1"><g transform="translate(96.56022, 261.828924)"><g><path d="M 0.59375 0 L 3.15625 -12.078125 L 4.421875 -12.078125 L 3.4375 -7.390625 L 3.59375 -7.359375 C 3.945312 -7.816406 4.351562 -8.164062 4.8125 -8.40625 C 5.269531 -8.65625 5.800781 -8.78125 6.40625 -8.78125 C 7.238281 -8.78125 7.863281 -8.570312 8.28125 -8.15625 C 8.707031 -7.75 8.921875 -7.1875 8.921875 -6.46875 C 8.921875 -6.164062 8.890625 -5.859375 8.828125 -5.546875 L 7.640625 0 L 6.375 0 L 7.546875 -5.515625 C 7.597656 -5.785156 7.625 -6.023438 7.625 -6.234375 C 7.625 -6.703125 7.488281 -7.054688 7.21875 -7.296875 C 6.957031 -7.546875 6.554688 -7.671875 6.015625 -7.671875 C 5.265625 -7.671875 4.597656 -7.410156 4.015625 -6.890625 C 3.441406 -6.367188 3.035156 -5.546875 2.796875 -4.421875 L 1.859375 0 Z M 0.59375 0 "/></g></g></g><g fill="#ffffff" fill-opacity="1"><g transform="translate(106.479672, 261.828924)"><g><path d="M 8.40625 -6.046875 C 8.257812 -5.285156 7.832031 -4.671875 7.125 -4.203125 C 6.425781 -3.742188 5.425781 -3.515625 4.125 -3.515625 C 3.507812 -3.515625 2.863281 -3.566406 2.1875 -3.671875 C 2.164062 -3.503906 2.15625 -3.328125 2.15625 -3.140625 C 2.15625 -2.441406 2.332031 -1.90625 2.6875 -1.53125 C 3.050781 -1.164062 3.570312 -0.984375 4.25 -0.984375 C 4.851562 -0.984375 5.359375 -1.09375 5.765625 -1.3125 C 6.171875 -1.539062 6.53125 -1.894531 6.84375 -2.375 L 7.015625 -2.375 L 7.796875 -1.84375 C 7.429688 -1.175781 6.941406 -0.671875 6.328125 -0.328125 C 5.710938 0.00390625 4.941406 0.171875 4.015625 0.171875 C 3.390625 0.171875 2.835938 0.0234375 2.359375 -0.265625 C 1.890625 -0.554688 1.523438 -0.960938 1.265625 -1.484375 C 1.003906 -2.015625 0.875 -2.632812 0.875 -3.34375 C 0.875 -3.769531 0.925781 -4.210938 1.03125 -4.671875 C 1.21875 -5.546875 1.523438 -6.289062 1.953125 -6.90625 C 2.390625 -7.53125 2.921875 -8 3.546875 -8.3125 C 4.171875 -8.625 4.863281 -8.78125 5.625 -8.78125 C 6.238281 -8.78125 6.757812 -8.675781 7.1875 -8.46875 C 7.613281 -8.257812 7.929688 -7.984375 8.140625 -7.640625 C 8.347656 -7.296875 8.453125 -6.921875 8.453125 -6.515625 C 8.453125 -6.359375 8.4375 -6.203125 8.40625 -6.046875 Z M 5.390625 -7.703125 C 4.628906 -7.703125 4.003906 -7.46875 3.515625 -7 C 3.023438 -6.53125 2.648438 -5.78125 2.390625 -4.75 C 2.992188 -4.6875 3.535156 -4.65625 4.015625 -4.65625 C 5.035156 -4.65625 5.789062 -4.785156 6.28125 -5.046875 C 6.78125 -5.304688 7.070312 -5.679688 7.15625 -6.171875 C 7.175781 -6.265625 7.1875 -6.359375 7.1875 -6.453125 C 7.1875 -6.828125 7.023438 -7.128906 6.703125 -7.359375 C 6.390625 -7.585938 5.953125 -7.703125 5.390625 -7.703125 Z M 5.390625 -7.703125 "/></g></g></g><g fill="#ffffff" fill-opacity="1"><g transform="translate(115.664928, 261.828924)"><g/></g></g><g fill="#ffffff" fill-opacity="1"><g transform="translate(119.585846, 261.828924)"><g><path d="M 3.40625 0.171875 C 2.90625 0.171875 2.472656 0.0703125 2.109375 -0.125 C 1.753906 -0.332031 1.484375 -0.617188 1.296875 -0.984375 C 1.109375 -1.347656 1.015625 -1.769531 1.015625 -2.25 C 1.015625 -2.519531 1.046875 -2.804688 1.109375 -3.109375 L 2.28125 -8.625 L 3.5625 -8.625 L 2.34375 -2.90625 C 2.3125 -2.738281 2.296875 -2.566406 2.296875 -2.390625 C 2.296875 -1.953125 2.425781 -1.601562 2.6875 -1.34375 C 2.957031 -1.082031 3.332031 -0.953125 3.8125 -0.953125 C 4.582031 -0.953125 5.242188 -1.203125 5.796875 -1.703125 C 6.347656 -2.210938 6.75 -3.046875 7 -4.203125 L 7.9375 -8.625 L 9.203125 -8.625 L 7.375 0 L 6.171875 0 L 6.46875 -1.359375 L 6.3125 -1.390625 C 5.957031 -0.859375 5.554688 -0.460938 5.109375 -0.203125 C 4.660156 0.046875 4.09375 0.171875 3.40625 0.171875 Z M 3.40625 0.171875 "/></g></g></g><g fill="#ffffff" fill-opacity="1"><g transform="translate(129.372523, 261.828924)"><g><path d="M 2.484375 0.15625 C 2.003906 0.15625 1.625 0.015625 1.34375 -0.265625 C 1.0625 -0.546875 0.921875 -0.9375 0.921875 -1.4375 C 0.921875 -1.632812 0.945312 -1.84375 1 -2.0625 L 3.125 -12.078125 L 4.40625 -12.078125 L 2.25 -2 C 2.226562 -1.851562 2.21875 -1.738281 2.21875 -1.65625 C 2.21875 -1.4375 2.273438 -1.269531 2.390625 -1.15625 C 2.515625 -1.039062 2.679688 -0.984375 2.890625 -0.984375 C 3.035156 -0.984375 3.203125 -1.007812 3.390625 -1.0625 L 3.5 -1.03125 L 3.5 -0.03125 C 3.257812 0.09375 2.921875 0.15625 2.484375 0.15625 Z M 2.484375 0.15625 "/></g></g></g><g fill="#ffffff" fill-opacity="1"><g transform="translate(134.058879, 261.828924)"><g><path d="M 3.859375 -7.578125 L 2.78125 -2.46875 C 2.738281 -2.289062 2.71875 -2.125 2.71875 -1.96875 C 2.71875 -1.625 2.804688 -1.375 2.984375 -1.21875 C 3.171875 -1.0625 3.425781 -0.984375 3.75 -0.984375 C 4.21875 -0.984375 4.632812 -1.113281 5 -1.375 L 5.171875 -1.375 L 5.421875 -0.453125 C 4.941406 -0.0351562 4.289062 0.171875 3.46875 0.171875 C 2.832031 0.171875 2.332031 0 1.96875 -0.34375 C 1.613281 -0.695312 1.4375 -1.175781 1.4375 -1.78125 C 1.4375 -2.007812 1.460938 -2.25 1.515625 -2.5 L 2.59375 -7.578125 L 1.09375 -7.578125 L 1.3125 -8.625 L 2.8125 -8.625 L 3.203125 -10.453125 L 4.515625 -10.65625 L 4.09375 -8.625 L 6.859375 -8.625 L 6.640625 -7.578125 Z M 3.859375 -7.578125 "/></g></g></g><g fill="#ffffff" fill-opacity="1"><g transform="translate(140.619776, 261.828924)"><g><path d="M 3.59375 -10.28125 C 3.320312 -10.28125 3.101562 -10.363281 2.9375 -10.53125 C 2.769531 -10.707031 2.6875 -10.925781 2.6875 -11.1875 C 2.6875 -11.445312 2.769531 -11.660156 2.9375 -11.828125 C 3.101562 -11.992188 3.320312 -12.078125 3.59375 -12.078125 C 3.863281 -12.078125 4.082031 -11.992188 4.25 -11.828125 C 4.425781 -11.660156 4.515625 -11.445312 4.515625 -11.1875 C 4.515625 -10.925781 4.425781 -10.707031 4.25 -10.53125 C 4.082031 -10.363281 3.863281 -10.28125 3.59375 -10.28125 Z M 0.578125 0 L 2.40625 -8.625 L 3.6875 -8.625 L 1.859375 0 Z M 0.578125 0 "/></g></g></g><g fill="#ffffff" fill-opacity="1"><g transform="translate(144.892176, 261.828924)"><g><path d="M 0.59375 0 L 2.421875 -8.625 L 3.625 -8.625 L 3.359375 -7.34375 L 3.515625 -7.3125 C 3.773438 -7.78125 4.148438 -8.140625 4.640625 -8.390625 C 5.140625 -8.648438 5.691406 -8.78125 6.296875 -8.78125 C 6.929688 -8.78125 7.410156 -8.640625 7.734375 -8.359375 C 8.066406 -8.085938 8.300781 -7.695312 8.4375 -7.1875 L 8.59375 -7.1875 C 9.007812 -7.71875 9.445312 -8.113281 9.90625 -8.375 C 10.375 -8.644531 10.925781 -8.78125 11.5625 -8.78125 C 12.257812 -8.78125 12.796875 -8.597656 13.171875 -8.234375 C 13.554688 -7.878906 13.75 -7.375 13.75 -6.71875 C 13.75 -6.457031 13.71875 -6.175781 13.65625 -5.875 L 12.40625 0 L 11.140625 0 L 12.375 -5.84375 C 12.414062 -6.0625 12.4375 -6.253906 12.4375 -6.421875 C 12.4375 -6.816406 12.320312 -7.125 12.09375 -7.34375 C 11.863281 -7.5625 11.515625 -7.671875 11.046875 -7.671875 C 10.359375 -7.671875 9.753906 -7.421875 9.234375 -6.921875 C 8.710938 -6.429688 8.328125 -5.609375 8.078125 -4.453125 L 7.140625 0 L 5.859375 0 L 7.109375 -5.84375 C 7.148438 -6.0625 7.171875 -6.253906 7.171875 -6.421875 C 7.171875 -6.816406 7.050781 -7.125 6.8125 -7.34375 C 6.582031 -7.5625 6.234375 -7.671875 5.765625 -7.671875 C 5.085938 -7.671875 4.484375 -7.425781 3.953125 -6.9375 C 3.429688 -6.457031 3.054688 -5.675781 2.828125 -4.59375 L 1.859375 0 Z M 0.59375 0 "/></g></g></g><g fill="#ffffff" fill-opacity="1"><g transform="translate(159.576089, 261.828924)"><g><path d="M 3.671875 0.171875 C 3.148438 0.171875 2.675781 0.0507812 2.25 -0.1875 C 1.820312 -0.425781 1.476562 -0.785156 1.21875 -1.265625 C 0.957031 -1.753906 0.828125 -2.351562 0.828125 -3.0625 C 0.828125 -3.539062 0.882812 -4.023438 1 -4.515625 C 1.300781 -5.929688 1.832031 -6.992188 2.59375 -7.703125 C 3.363281 -8.421875 4.359375 -8.78125 5.578125 -8.78125 C 6.128906 -8.78125 6.625 -8.648438 7.0625 -8.390625 C 7.5 -8.140625 7.804688 -7.78125 7.984375 -7.3125 L 8.15625 -7.34375 L 8.4375 -8.625 L 9.703125 -8.625 L 7.875 0 L 6.59375 0 L 6.859375 -1.265625 L 6.703125 -1.296875 C 6.398438 -0.828125 5.992188 -0.460938 5.484375 -0.203125 C 4.984375 0.046875 4.378906 0.171875 3.671875 0.171875 Z M 4.15625 -0.984375 C 4.957031 -0.984375 5.65625 -1.253906 6.25 -1.796875 C 6.851562 -2.347656 7.273438 -3.1875 7.515625 -4.3125 C 7.585938 -4.695312 7.625 -5.046875 7.625 -5.359375 C 7.625 -6.085938 7.441406 -6.648438 7.078125 -7.046875 C 6.710938 -7.441406 6.210938 -7.640625 5.578125 -7.640625 C 3.859375 -7.640625 2.757812 -6.53125 2.28125 -4.3125 C 2.207031 -3.957031 2.171875 -3.601562 2.171875 -3.25 C 2.171875 -2.769531 2.253906 -2.359375 2.421875 -2.015625 C 2.585938 -1.671875 2.816406 -1.410156 3.109375 -1.234375 C 3.410156 -1.066406 3.757812 -0.984375 4.15625 -0.984375 Z M 4.15625 -0.984375 "/></g></g></g><g fill="#ffffff" fill-opacity="1"><g transform="translate(169.862644, 261.828924)"><g><path d="M 3.859375 -7.578125 L 2.78125 -2.46875 C 2.738281 -2.289062 2.71875 -2.125 2.71875 -1.96875 C 2.71875 -1.625 2.804688 -1.375 2.984375 -1.21875 C 3.171875 -1.0625 3.425781 -0.984375 3.75 -0.984375 C 4.21875 -0.984375 4.632812 -1.113281 5 -1.375 L 5.171875 -1.375 L 5.421875 -0.453125 C 4.941406 -0.0351562 4.289062 0.171875 3.46875 0.171875 C 2.832031 0.171875 2.332031 0 1.96875 -0.34375 C 1.613281 -0.695312 1.4375 -1.175781 1.4375 -1.78125 C 1.4375 -2.007812 1.460938 -2.25 1.515625 -2.5 L 2.59375 -7.578125 L 1.09375 -7.578125 L 1.3125 -8.625 L 2.8125 -8.625 L 3.203125 -10.453125 L 4.515625 -10.65625 L 4.09375 -8.625 L 6.859375 -8.625 L 6.640625 -7.578125 Z M 3.859375 -7.578125 "/></g></g></g><g fill="#ffffff" fill-opacity="1"><g transform="translate(176.423542, 261.828924)"><g><path d="M 8.40625 -6.046875 C 8.257812 -5.285156 7.832031 -4.671875 7.125 -4.203125 C 6.425781 -3.742188 5.425781 -3.515625 4.125 -3.515625 C 3.507812 -3.515625 2.863281 -3.566406 2.1875 -3.671875 C 2.164062 -3.503906 2.15625 -3.328125 2.15625 -3.140625 C 2.15625 -2.441406 2.332031 -1.90625 2.6875 -1.53125 C 3.050781 -1.164062 3.570312 -0.984375 4.25 -0.984375 C 4.851562 -0.984375 5.359375 -1.09375 5.765625 -1.3125 C 6.171875 -1.539062 6.53125 -1.894531 6.84375 -2.375 L 7.015625 -2.375 L 7.796875 -1.84375 C 7.429688 -1.175781 6.941406 -0.671875 6.328125 -0.328125 C 5.710938 0.00390625 4.941406 0.171875 4.015625 0.171875 C 3.390625 0.171875 2.835938 0.0234375 2.359375 -0.265625 C 1.890625 -0.554688 1.523438 -0.960938 1.265625 -1.484375 C 1.003906 -2.015625 0.875 -2.632812 0.875 -3.34375 C 0.875 -3.769531 0.925781 -4.210938 1.03125 -4.671875 C 1.21875 -5.546875 1.523438 -6.289062 1.953125 -6.90625 C 2.390625 -7.53125 2.921875 -8 3.546875 -8.3125 C 4.171875 -8.625 4.863281 -8.78125 5.625 -8.78125 C 6.238281 -8.78125 6.757812 -8.675781 7.1875 -8.46875 C 7.613281 -8.257812 7.929688 -7.984375 8.140625 -7.640625 C 8.347656 -7.296875 8.453125 -6.921875 8.453125 -6.515625 C 8.453125 -6.359375 8.4375 -6.203125 8.40625 -6.046875 Z M 5.390625 -7.703125 C 4.628906 -7.703125 4.003906 -7.46875 3.515625 -7 C 3.023438 -6.53125 2.648438 -5.78125 2.390625 -4.75 C 2.992188 -4.6875 3.535156 -4.65625 4.015625 -4.65625 C 5.035156 -4.65625 5.789062 -4.785156 6.28125 -5.046875 C 6.78125 -5.304688 7.070312 -5.679688 7.15625 -6.171875 C 7.175781 -6.265625 7.1875 -6.359375 7.1875 -6.453125 C 7.1875 -6.828125 7.023438 -7.128906 6.703125 -7.359375 C 6.390625 -7.585938 5.953125 -7.703125 5.390625 -7.703125 Z M 5.390625 -7.703125 "/></g></g></g><g fill="#ffffff" fill-opacity="1"><g transform="translate(185.608798, 261.828924)"><g/></g></g><g fill="#ffffff" fill-opacity="1"><g transform="translate(189.529715, 261.828924)"><g><path d="M 4.78125 0.171875 C 4.15625 0.171875 3.628906 0.0351562 3.203125 -0.234375 C 2.773438 -0.503906 2.476562 -0.847656 2.3125 -1.265625 L 2.140625 -1.234375 L 1.859375 0 L 0.59375 0 L 3.15625 -12.078125 L 4.4375 -12.078125 L 3.421875 -7.328125 L 3.578125 -7.296875 C 4.273438 -8.285156 5.273438 -8.78125 6.578125 -8.78125 C 7.117188 -8.78125 7.609375 -8.648438 8.046875 -8.390625 C 8.492188 -8.140625 8.84375 -7.769531 9.09375 -7.28125 C 9.351562 -6.789062 9.484375 -6.210938 9.484375 -5.546875 C 9.484375 -5.160156 9.4375 -4.75 9.34375 -4.3125 C 9.007812 -2.757812 8.457031 -1.625 7.6875 -0.90625 C 6.925781 -0.1875 5.957031 0.171875 4.78125 0.171875 Z M 4.71875 -0.984375 C 5.59375 -0.984375 6.296875 -1.242188 6.828125 -1.765625 C 7.359375 -2.285156 7.75 -3.132812 8 -4.3125 C 8.101562 -4.78125 8.15625 -5.207031 8.15625 -5.59375 C 8.15625 -6.957031 7.484375 -7.640625 6.140625 -7.640625 C 5.328125 -7.640625 4.625 -7.363281 4.03125 -6.8125 C 3.4375 -6.269531 3.019531 -5.4375 2.78125 -4.3125 C 2.6875 -3.875 2.640625 -3.484375 2.640625 -3.140625 C 2.640625 -2.410156 2.820312 -1.867188 3.1875 -1.515625 C 3.5625 -1.160156 4.070312 -0.984375 4.71875 -0.984375 Z M 4.71875 -0.984375 "/></g></g></g><g fill="#ffffff" fill-opacity="1"><g transform="translate(199.808455, 261.828924)"><g><path d="M 2.484375 0.15625 C 2.003906 0.15625 1.625 0.015625 1.34375 -0.265625 C 1.0625 -0.546875 0.921875 -0.9375 0.921875 -1.4375 C 0.921875 -1.632812 0.945312 -1.84375 1 -2.0625 L 3.125 -12.078125 L 4.40625 -12.078125 L 2.25 -2 C 2.226562 -1.851562 2.21875 -1.738281 2.21875 -1.65625 C 2.21875 -1.4375 2.273438 -1.269531 2.390625 -1.15625 C 2.515625 -1.039062 2.679688 -0.984375 2.890625 -0.984375 C 3.035156 -0.984375 3.203125 -1.007812 3.390625 -1.0625 L 3.5 -1.03125 L 3.5 -0.03125 C 3.257812 0.09375 2.921875 0.15625 2.484375 0.15625 Z M 2.484375 0.15625 "/></g></g></g><g fill="#ffffff" fill-opacity="1"><g transform="translate(204.49481, 261.828924)"><g><path d="M 3.40625 0.171875 C 2.90625 0.171875 2.472656 0.0703125 2.109375 -0.125 C 1.753906 -0.332031 1.484375 -0.617188 1.296875 -0.984375 C 1.109375 -1.347656 1.015625 -1.769531 1.015625 -2.25 C 1.015625 -2.519531 1.046875 -2.804688 1.109375 -3.109375 L 2.28125 -8.625 L 3.5625 -8.625 L 2.34375 -2.90625 C 2.3125 -2.738281 2.296875 -2.566406 2.296875 -2.390625 C 2.296875 -1.953125 2.425781 -1.601562 2.6875 -1.34375 C 2.957031 -1.082031 3.332031 -0.953125 3.8125 -0.953125 C 4.582031 -0.953125 5.242188 -1.203125 5.796875 -1.703125 C 6.347656 -2.210938 6.75 -3.046875 7 -4.203125 L 7.9375 -8.625 L 9.203125 -8.625 L 7.375 0 L 6.171875 0 L 6.46875 -1.359375 L 6.3125 -1.390625 C 5.957031 -0.859375 5.554688 -0.460938 5.109375 -0.203125 C 4.660156 0.046875 4.09375 0.171875 3.40625 0.171875 Z M 3.40625 0.171875 "/></g></g></g><g fill="#ffffff" fill-opacity="1"><g transform="translate(214.281487, 261.828924)"><g><path d="M 8.40625 -6.046875 C 8.257812 -5.285156 7.832031 -4.671875 7.125 -4.203125 C 6.425781 -3.742188 5.425781 -3.515625 4.125 -3.515625 C 3.507812 -3.515625 2.863281 -3.566406 2.1875 -3.671875 C 2.164062 -3.503906 2.15625 -3.328125 2.15625 -3.140625 C 2.15625 -2.441406 2.332031 -1.90625 2.6875 -1.53125 C 3.050781 -1.164062 3.570312 -0.984375 4.25 -0.984375 C 4.851562 -0.984375 5.359375 -1.09375 5.765625 -1.3125 C 6.171875 -1.539062 6.53125 -1.894531 6.84375 -2.375 L 7.015625 -2.375 L 7.796875 -1.84375 C 7.429688 -1.175781 6.941406 -0.671875 6.328125 -0.328125 C 5.710938 0.00390625 4.941406 0.171875 4.015625 0.171875 C 3.390625 0.171875 2.835938 0.0234375 2.359375 -0.265625 C 1.890625 -0.554688 1.523438 -0.960938 1.265625 -1.484375 C 1.003906 -2.015625 0.875 -2.632812 0.875 -3.34375 C 0.875 -3.769531 0.925781 -4.210938 1.03125 -4.671875 C 1.21875 -5.546875 1.523438 -6.289062 1.953125 -6.90625 C 2.390625 -7.53125 2.921875 -8 3.546875 -8.3125 C 4.171875 -8.625 4.863281 -8.78125 5.625 -8.78125 C 6.238281 -8.78125 6.757812 -8.675781 7.1875 -8.46875 C 7.613281 -8.257812 7.929688 -7.984375 8.140625 -7.640625 C 8.347656 -7.296875 8.453125 -6.921875 8.453125 -6.515625 C 8.453125 -6.359375 8.4375 -6.203125 8.40625 -6.046875 Z M 5.390625 -7.703125 C 4.628906 -7.703125 4.003906 -7.46875 3.515625 -7 C 3.023438 -6.53125 2.648438 -5.78125 2.390625 -4.75 C 2.992188 -4.6875 3.535156 -4.65625 4.015625 -4.65625 C 5.035156 -4.65625 5.789062 -4.785156 6.28125 -5.046875 C 6.78125 -5.304688 7.070312 -5.679688 7.15625 -6.171875 C 7.175781 -6.265625 7.1875 -6.359375 7.1875 -6.453125 C 7.1875 -6.828125 7.023438 -7.128906 6.703125 -7.359375 C 6.390625 -7.585938 5.953125 -7.703125 5.390625 -7.703125 Z M 5.390625 -7.703125 "/></g></g></g><g fill="#ffffff" fill-opacity="1"><g transform="translate(223.466744, 261.828924)"><g><path d="M -0.15625 3.484375 L 2.421875 -8.625 L 3.6875 -8.625 L 3.421875 -7.359375 L 3.578125 -7.328125 C 3.859375 -7.742188 4.265625 -8.085938 4.796875 -8.359375 C 5.328125 -8.640625 5.929688 -8.78125 6.609375 -8.78125 C 7.160156 -8.78125 7.648438 -8.65625 8.078125 -8.40625 C 8.503906 -8.164062 8.835938 -7.800781 9.078125 -7.3125 C 9.328125 -6.820312 9.453125 -6.226562 9.453125 -5.53125 C 9.453125 -5.0625 9.394531 -4.5625 9.28125 -4.03125 C 9.082031 -3.125 8.769531 -2.359375 8.34375 -1.734375 C 7.914062 -1.109375 7.394531 -0.632812 6.78125 -0.3125 C 6.164062 0.0078125 5.476562 0.171875 4.71875 0.171875 C 4.15625 0.171875 3.65625 0.0546875 3.21875 -0.171875 C 2.78125 -0.410156 2.46875 -0.753906 2.28125 -1.203125 L 2.109375 -1.171875 L 1.125 3.484375 Z M 4.703125 -0.984375 C 6.429688 -0.984375 7.53125 -2.09375 8 -4.3125 C 8.101562 -4.769531 8.15625 -5.179688 8.15625 -5.546875 C 8.15625 -6.265625 7.976562 -6.789062 7.625 -7.125 C 7.269531 -7.46875 6.769531 -7.640625 6.125 -7.640625 C 5.601562 -7.640625 5.117188 -7.523438 4.671875 -7.296875 C 4.234375 -7.066406 3.847656 -6.710938 3.515625 -6.234375 C 3.191406 -5.765625 2.957031 -5.175781 2.8125 -4.46875 C 2.707031 -3.988281 2.65625 -3.554688 2.65625 -3.171875 C 2.65625 -2.421875 2.835938 -1.867188 3.203125 -1.515625 C 3.566406 -1.160156 4.066406 -0.984375 4.703125 -0.984375 Z M 4.703125 -0.984375 "/></g></g></g><g fill="#ffffff" fill-opacity="1"><g transform="translate(233.745483, 261.828924)"><g><path d="M 0.59375 0 L 2.421875 -8.625 L 3.625 -8.625 L 3.34375 -7.265625 L 3.5 -7.234375 C 3.8125 -7.753906 4.171875 -8.128906 4.578125 -8.359375 C 4.984375 -8.585938 5.484375 -8.703125 6.078125 -8.703125 C 6.378906 -8.703125 6.628906 -8.675781 6.828125 -8.625 C 7.023438 -8.570312 7.191406 -8.488281 7.328125 -8.375 L 6.8125 -7.265625 L 6.640625 -7.234375 C 6.359375 -7.421875 6.007812 -7.515625 5.59375 -7.515625 C 4.175781 -7.515625 3.234375 -6.421875 2.765625 -4.234375 L 1.859375 0 Z M 0.59375 0 "/></g></g></g><g fill="#ffffff" fill-opacity="1"><g transform="translate(240.400108, 261.828924)"><g><path d="M 3.59375 -10.28125 C 3.320312 -10.28125 3.101562 -10.363281 2.9375 -10.53125 C 2.769531 -10.707031 2.6875 -10.925781 2.6875 -11.1875 C 2.6875 -11.445312 2.769531 -11.660156 2.9375 -11.828125 C 3.101562 -11.992188 3.320312 -12.078125 3.59375 -12.078125 C 3.863281 -12.078125 4.082031 -11.992188 4.25 -11.828125 C 4.425781 -11.660156 4.515625 -11.445312 4.515625 -11.1875 C 4.515625 -10.925781 4.425781 -10.707031 4.25 -10.53125 C 4.082031 -10.363281 3.863281 -10.28125 3.59375 -10.28125 Z M 0.578125 0 L 2.40625 -8.625 L 3.6875 -8.625 L 1.859375 0 Z M 0.578125 0 "/></g></g></g><g fill="#ffffff" fill-opacity="1"><g transform="translate(244.672507, 261.828924)"><g><path d="M 0.59375 0 L 2.421875 -8.625 L 3.625 -8.625 L 3.34375 -7.265625 L 3.5 -7.234375 C 4.132812 -8.265625 5.097656 -8.78125 6.390625 -8.78125 C 7.179688 -8.78125 7.796875 -8.570312 8.234375 -8.15625 C 8.679688 -7.75 8.90625 -7.175781 8.90625 -6.4375 C 8.90625 -6.15625 8.875 -5.859375 8.8125 -5.546875 L 7.640625 0 L 6.375 0 L 7.546875 -5.515625 C 7.597656 -5.753906 7.625 -5.984375 7.625 -6.203125 C 7.625 -6.679688 7.476562 -7.046875 7.1875 -7.296875 C 6.90625 -7.546875 6.476562 -7.671875 5.90625 -7.671875 C 5.15625 -7.671875 4.507812 -7.414062 3.96875 -6.90625 C 3.4375 -6.394531 3.046875 -5.566406 2.796875 -4.421875 L 1.859375 0 Z M 0.59375 0 "/></g></g></g><g fill="#ffffff" fill-opacity="1"><g transform="translate(254.591959, 261.828924)"><g><path d="M 3.859375 -7.578125 L 2.78125 -2.46875 C 2.738281 -2.289062 2.71875 -2.125 2.71875 -1.96875 C 2.71875 -1.625 2.804688 -1.375 2.984375 -1.21875 C 3.171875 -1.0625 3.425781 -0.984375 3.75 -0.984375 C 4.21875 -0.984375 4.632812 -1.113281 5 -1.375 L 5.171875 -1.375 L 5.421875 -0.453125 C 4.941406 -0.0351562 4.289062 0.171875 3.46875 0.171875 C 2.832031 0.171875 2.332031 0 1.96875 -0.34375 C 1.613281 -0.695312 1.4375 -1.175781 1.4375 -1.78125 C 1.4375 -2.007812 1.460938 -2.25 1.515625 -2.5 L 2.59375 -7.578125 L 1.09375 -7.578125 L 1.3125 -8.625 L 2.8125 -8.625 L 3.203125 -10.453125 L 4.515625 -10.65625 L 4.09375 -8.625 L 6.859375 -8.625 L 6.640625 -7.578125 Z M 3.859375 -7.578125 "/></g></g></g><g fill="#ffffff" fill-opacity="1"><g transform="translate(261.152857, 261.828924)"><g/></g></g><g fill="#ffffff" fill-opacity="1"><g transform="translate(265.073774, 261.828924)"><g><path d="M 1 0 L 2.625 -7.578125 L 1.125 -7.578125 L 1.34375 -8.625 L 2.84375 -8.625 C 2.820312 -8.976562 2.847656 -9.335938 2.921875 -9.703125 C 3.109375 -10.566406 3.472656 -11.207031 4.015625 -11.625 C 4.554688 -12.039062 5.296875 -12.25 6.234375 -12.25 C 6.679688 -12.25 7.066406 -12.191406 7.390625 -12.078125 C 7.710938 -11.960938 7.957031 -11.789062 8.125 -11.5625 L 7.453125 -10.796875 L 7.28125 -10.765625 C 7 -11.035156 6.582031 -11.171875 6.03125 -11.171875 C 5.519531 -11.171875 5.109375 -11.039062 4.796875 -10.78125 C 4.492188 -10.519531 4.289062 -10.148438 4.1875 -9.671875 C 4.125 -9.359375 4.097656 -9.007812 4.109375 -8.625 L 6.859375 -8.625 L 6.640625 -7.578125 L 3.890625 -7.578125 L 2.28125 0 Z M 1 0 "/></g></g></g><g fill="#ffffff" fill-opacity="1"><g transform="translate(271.212899, 261.828924)"><g><path d="M 4.078125 0.171875 C 3.410156 0.171875 2.832031 0.0390625 2.34375 -0.21875 C 1.851562 -0.476562 1.472656 -0.847656 1.203125 -1.328125 C 0.941406 -1.816406 0.8125 -2.398438 0.8125 -3.078125 C 0.8125 -3.460938 0.859375 -3.875 0.953125 -4.3125 C 1.253906 -5.769531 1.820312 -6.878906 2.65625 -7.640625 C 3.488281 -8.398438 4.546875 -8.78125 5.828125 -8.78125 C 6.492188 -8.78125 7.070312 -8.648438 7.5625 -8.390625 C 8.050781 -8.140625 8.425781 -7.769531 8.6875 -7.28125 C 8.957031 -6.789062 9.09375 -6.210938 9.09375 -5.546875 C 9.09375 -5.160156 9.046875 -4.75 8.953125 -4.3125 C 8.640625 -2.851562 8.066406 -1.738281 7.234375 -0.96875 C 6.410156 -0.207031 5.359375 0.171875 4.078125 0.171875 Z M 4.234375 -0.984375 C 5.097656 -0.984375 5.816406 -1.253906 6.390625 -1.796875 C 6.960938 -2.335938 7.367188 -3.175781 7.609375 -4.3125 C 7.691406 -4.738281 7.734375 -5.113281 7.734375 -5.4375 C 7.734375 -6.175781 7.546875 -6.726562 7.171875 -7.09375 C 6.796875 -7.457031 6.289062 -7.640625 5.65625 -7.640625 C 4.800781 -7.640625 4.082031 -7.367188 3.5 -6.828125 C 2.925781 -6.285156 2.519531 -5.445312 2.28125 -4.3125 C 2.195312 -3.882812 2.15625 -3.507812 2.15625 -3.1875 C 2.15625 -2.445312 2.34375 -1.894531 2.71875 -1.53125 C 3.09375 -1.164062 3.597656 -0.984375 4.234375 -0.984375 Z M 4.234375 -0.984375 "/></g></g></g><g fill="#ffffff" fill-opacity="1"><g transform="translate(281.10112, 261.828924)"><g><path d="M 0.59375 0 L 2.421875 -8.625 L 3.625 -8.625 L 3.34375 -7.265625 L 3.5 -7.234375 C 3.8125 -7.753906 4.171875 -8.128906 4.578125 -8.359375 C 4.984375 -8.585938 5.484375 -8.703125 6.078125 -8.703125 C 6.378906 -8.703125 6.628906 -8.675781 6.828125 -8.625 C 7.023438 -8.570312 7.191406 -8.488281 7.328125 -8.375 L 6.8125 -7.265625 L 6.640625 -7.234375 C 6.359375 -7.421875 6.007812 -7.515625 5.59375 -7.515625 C 4.175781 -7.515625 3.234375 -6.421875 2.765625 -4.234375 L 1.859375 0 Z M 0.59375 0 "/></g></g></g><g fill="#ffffff" fill-opacity="1"><g transform="translate(146.578119, 283.578922)"><g><path d="M 4.03125 0.171875 C 3.394531 0.171875 2.835938 0.03125 2.359375 -0.25 C 1.878906 -0.53125 1.503906 -0.925781 1.234375 -1.4375 C 0.972656 -1.957031 0.84375 -2.554688 0.84375 -3.234375 C 0.84375 -3.648438 0.890625 -4.0625 0.984375 -4.46875 C 1.273438 -5.851562 1.835938 -6.914062 2.671875 -7.65625 C 3.515625 -8.40625 4.59375 -8.78125 5.90625 -8.78125 C 6.738281 -8.78125 7.382812 -8.609375 7.84375 -8.265625 C 8.300781 -7.929688 8.632812 -7.472656 8.84375 -6.890625 L 7.890625 -6.296875 L 7.734375 -6.296875 C 7.546875 -6.753906 7.289062 -7.09375 6.96875 -7.3125 C 6.644531 -7.53125 6.207031 -7.640625 5.65625 -7.640625 C 5.132812 -7.640625 4.644531 -7.515625 4.1875 -7.265625 C 3.726562 -7.023438 3.335938 -6.664062 3.015625 -6.1875 C 2.691406 -5.71875 2.457031 -5.144531 2.3125 -4.46875 C 2.21875 -4.007812 2.171875 -3.597656 2.171875 -3.234375 C 2.171875 -2.492188 2.351562 -1.929688 2.71875 -1.546875 C 3.09375 -1.171875 3.613281 -0.984375 4.28125 -0.984375 C 4.851562 -0.984375 5.351562 -1.117188 5.78125 -1.390625 C 6.21875 -1.671875 6.613281 -2.109375 6.96875 -2.703125 L 7.125 -2.703125 L 7.90625 -2.171875 C 7.53125 -1.398438 7.035156 -0.816406 6.421875 -0.421875 C 5.816406 -0.0234375 5.019531 0.171875 4.03125 0.171875 Z M 4.03125 0.171875 "/></g></g></g><g fill="#ffffff" fill-opacity="1"><g transform="translate(155.458768, 283.578922)"><g><path d="M 4.078125 0.171875 C 3.410156 0.171875 2.832031 0.0390625 2.34375 -0.21875 C 1.851562 -0.476562 1.472656 -0.847656 1.203125 -1.328125 C 0.941406 -1.816406 0.8125 -2.398438 0.8125 -3.078125 C 0.8125 -3.460938 0.859375 -3.875 0.953125 -4.3125 C 1.253906 -5.769531 1.820312 -6.878906 2.65625 -7.640625 C 3.488281 -8.398438 4.546875 -8.78125 5.828125 -8.78125 C 6.492188 -8.78125 7.070312 -8.648438 7.5625 -8.390625 C 8.050781 -8.140625 8.425781 -7.769531 8.6875 -7.28125 C 8.957031 -6.789062 9.09375 -6.210938 9.09375 -5.546875 C 9.09375 -5.160156 9.046875 -4.75 8.953125 -4.3125 C 8.640625 -2.851562 8.066406 -1.738281 7.234375 -0.96875 C 6.410156 -0.207031 5.359375 0.171875 4.078125 0.171875 Z M 4.234375 -0.984375 C 5.097656 -0.984375 5.816406 -1.253906 6.390625 -1.796875 C 6.960938 -2.335938 7.367188 -3.175781 7.609375 -4.3125 C 7.691406 -4.738281 7.734375 -5.113281 7.734375 -5.4375 C 7.734375 -6.175781 7.546875 -6.726562 7.171875 -7.09375 C 6.796875 -7.457031 6.289062 -7.640625 5.65625 -7.640625 C 4.800781 -7.640625 4.082031 -7.367188 3.5 -6.828125 C 2.925781 -6.285156 2.519531 -5.445312 2.28125 -4.3125 C 2.195312 -3.882812 2.15625 -3.507812 2.15625 -3.1875 C 2.15625 -2.445312 2.34375 -1.894531 2.71875 -1.53125 C 3.09375 -1.164062 3.597656 -0.984375 4.234375 -0.984375 Z M 4.234375 -0.984375 "/></g></g></g><g fill="#ffffff" fill-opacity="1"><g transform="translate(165.346978, 283.578922)"><g><path d="M 3.671875 0.171875 C 3.128906 0.171875 2.644531 0.046875 2.21875 -0.203125 C 1.789062 -0.453125 1.453125 -0.820312 1.203125 -1.3125 C 0.960938 -1.800781 0.84375 -2.394531 0.84375 -3.09375 C 0.84375 -3.5625 0.898438 -4.0625 1.015625 -4.59375 C 1.203125 -5.5 1.507812 -6.265625 1.9375 -6.890625 C 2.363281 -7.515625 2.882812 -7.984375 3.5 -8.296875 C 4.125 -8.617188 4.816406 -8.78125 5.578125 -8.78125 C 6.128906 -8.78125 6.625 -8.660156 7.0625 -8.421875 C 7.507812 -8.191406 7.820312 -7.847656 8 -7.390625 L 8.171875 -7.421875 L 9.171875 -12.078125 L 10.4375 -12.078125 L 7.875 0 L 6.59375 0 L 6.859375 -1.265625 L 6.703125 -1.296875 C 6.421875 -0.878906 6.015625 -0.53125 5.484375 -0.25 C 4.953125 0.03125 4.347656 0.171875 3.671875 0.171875 Z M 4.15625 -0.984375 C 4.675781 -0.984375 5.160156 -1.097656 5.609375 -1.328125 C 6.054688 -1.554688 6.441406 -1.90625 6.765625 -2.375 C 7.085938 -2.851562 7.328125 -3.445312 7.484375 -4.15625 C 7.578125 -4.632812 7.625 -5.066406 7.625 -5.453125 C 7.625 -6.203125 7.441406 -6.753906 7.078125 -7.109375 C 6.722656 -7.460938 6.222656 -7.640625 5.578125 -7.640625 C 3.859375 -7.640625 2.757812 -6.53125 2.28125 -4.3125 C 2.1875 -3.851562 2.140625 -3.441406 2.140625 -3.078125 C 2.140625 -2.359375 2.316406 -1.828125 2.671875 -1.484375 C 3.023438 -1.148438 3.519531 -0.984375 4.15625 -0.984375 Z M 4.15625 -0.984375 "/></g></g></g><g fill="#ffffff" fill-opacity="1"><g transform="translate(175.633533, 283.578922)"><g><path d="M 3.59375 -10.28125 C 3.320312 -10.28125 3.101562 -10.363281 2.9375 -10.53125 C 2.769531 -10.707031 2.6875 -10.925781 2.6875 -11.1875 C 2.6875 -11.445312 2.769531 -11.660156 2.9375 -11.828125 C 3.101562 -11.992188 3.320312 -12.078125 3.59375 -12.078125 C 3.863281 -12.078125 4.082031 -11.992188 4.25 -11.828125 C 4.425781 -11.660156 4.515625 -11.445312 4.515625 -11.1875 C 4.515625 -10.925781 4.425781 -10.707031 4.25 -10.53125 C 4.082031 -10.363281 3.863281 -10.28125 3.59375 -10.28125 Z M 0.578125 0 L 2.40625 -8.625 L 3.6875 -8.625 L 1.859375 0 Z M 0.578125 0 "/></g></g></g><g fill="#ffffff" fill-opacity="1"><g transform="translate(179.905933, 283.578922)"><g><path d="M 0.59375 0 L 2.421875 -8.625 L 3.625 -8.625 L 3.34375 -7.265625 L 3.5 -7.234375 C 4.132812 -8.265625 5.097656 -8.78125 6.390625 -8.78125 C 7.179688 -8.78125 7.796875 -8.570312 8.234375 -8.15625 C 8.679688 -7.75 8.90625 -7.175781 8.90625 -6.4375 C 8.90625 -6.15625 8.875 -5.859375 8.8125 -5.546875 L 7.640625 0 L 6.375 0 L 7.546875 -5.515625 C 7.597656 -5.753906 7.625 -5.984375 7.625 -6.203125 C 7.625 -6.679688 7.476562 -7.046875 7.1875 -7.296875 C 6.90625 -7.546875 6.476562 -7.671875 5.90625 -7.671875 C 5.15625 -7.671875 4.507812 -7.414062 3.96875 -6.90625 C 3.4375 -6.394531 3.046875 -5.566406 2.796875 -4.421875 L 1.859375 0 Z M 0.59375 0 "/></g></g></g><g fill="#ffffff" fill-opacity="1"><g transform="translate(189.825385, 283.578922)"><g><path d="M 2.75 3.65625 C 2.019531 3.65625 1.398438 3.566406 0.890625 3.390625 C 0.378906 3.210938 -0.00390625 2.957031 -0.265625 2.625 C -0.535156 2.300781 -0.671875 1.925781 -0.671875 1.5 C -0.671875 1.375 -0.648438 1.210938 -0.609375 1.015625 C -0.523438 0.609375 -0.300781 0.265625 0.0625 -0.015625 C 0.4375 -0.296875 0.910156 -0.5 1.484375 -0.625 L 1.515625 -0.796875 C 1.328125 -0.921875 1.1875 -1.0625 1.09375 -1.21875 C 1 -1.375 0.953125 -1.566406 0.953125 -1.796875 C 0.953125 -1.921875 0.96875 -2.0625 1 -2.21875 C 1.113281 -2.800781 1.609375 -3.164062 2.484375 -3.3125 L 2.515625 -3.484375 C 1.878906 -3.859375 1.5625 -4.441406 1.5625 -5.234375 C 1.5625 -5.484375 1.59375 -5.753906 1.65625 -6.046875 C 1.769531 -6.578125 1.984375 -7.046875 2.296875 -7.453125 C 2.617188 -7.867188 3.035156 -8.191406 3.546875 -8.421875 C 4.066406 -8.660156 4.675781 -8.78125 5.375 -8.78125 C 6.09375 -8.78125 6.664062 -8.625 7.09375 -8.3125 C 7.3125 -8.507812 7.488281 -8.722656 7.625 -8.953125 C 7.769531 -9.179688 7.890625 -9.445312 7.984375 -9.75 L 8.171875 -9.84375 L 9.15625 -9.59375 C 9.007812 -9.101562 8.800781 -8.707031 8.53125 -8.40625 C 8.269531 -8.101562 7.929688 -7.878906 7.515625 -7.734375 L 7.484375 -7.578125 C 7.796875 -7.273438 7.953125 -6.890625 7.953125 -6.421875 C 7.953125 -6.253906 7.925781 -6.039062 7.875 -5.78125 C 7.757812 -5.238281 7.523438 -4.75 7.171875 -4.3125 C 6.816406 -3.882812 6.375 -3.546875 5.84375 -3.296875 C 5.320312 -3.046875 4.75 -2.921875 4.125 -2.921875 C 4.050781 -2.921875 3.921875 -2.925781 3.734375 -2.9375 C 3.523438 -2.945312 3.375 -2.953125 3.28125 -2.953125 C 2.96875 -2.953125 2.710938 -2.867188 2.515625 -2.703125 C 2.316406 -2.535156 2.21875 -2.320312 2.21875 -2.0625 C 2.21875 -1.851562 2.300781 -1.6875 2.46875 -1.5625 C 2.632812 -1.445312 2.875 -1.382812 3.1875 -1.375 L 5.0625 -1.265625 C 5.8125 -1.234375 6.378906 -1.054688 6.765625 -0.734375 C 7.148438 -0.410156 7.34375 0.0234375 7.34375 0.578125 C 7.34375 0.765625 7.316406 0.960938 7.265625 1.171875 C 7.148438 1.722656 6.9375 2.175781 6.625 2.53125 C 6.320312 2.894531 5.859375 3.171875 5.234375 3.359375 C 4.609375 3.554688 3.78125 3.65625 2.75 3.65625 Z M 4.359375 -4.015625 C 4.972656 -4.015625 5.476562 -4.171875 5.875 -4.484375 C 6.28125 -4.804688 6.539062 -5.253906 6.65625 -5.828125 C 6.695312 -6.035156 6.71875 -6.21875 6.71875 -6.375 C 6.71875 -6.800781 6.582031 -7.125 6.3125 -7.34375 C 6.050781 -7.570312 5.660156 -7.6875 5.140625 -7.6875 C 4.523438 -7.6875 4.019531 -7.523438 3.625 -7.203125 C 3.238281 -6.890625 2.984375 -6.429688 2.859375 -5.828125 C 2.816406 -5.628906 2.796875 -5.457031 2.796875 -5.3125 C 2.796875 -4.894531 2.925781 -4.570312 3.1875 -4.34375 C 3.457031 -4.125 3.847656 -4.015625 4.359375 -4.015625 Z M 2.75 2.5625 C 3.394531 2.5625 3.945312 2.5 4.40625 2.375 C 4.875 2.25 5.238281 2.078125 5.5 1.859375 C 5.757812 1.648438 5.914062 1.410156 5.96875 1.140625 C 6 1.035156 6.015625 0.914062 6.015625 0.78125 C 6.015625 0.519531 5.914062 0.320312 5.71875 0.1875 C 5.519531 0.0507812 5.203125 -0.03125 4.765625 -0.0625 L 2.84375 -0.203125 C 2.800781 -0.203125 2.753906 -0.207031 2.703125 -0.21875 C 2.648438 -0.226562 2.601562 -0.234375 2.5625 -0.234375 C 2 -0.222656 1.566406 -0.101562 1.265625 0.125 C 0.960938 0.351562 0.769531 0.664062 0.6875 1.0625 C 0.664062 1.144531 0.65625 1.238281 0.65625 1.34375 C 0.65625 1.738281 0.84375 2.039062 1.21875 2.25 C 1.601562 2.457031 2.113281 2.5625 2.75 2.5625 Z M 2.75 2.5625 "/></g></g></g><g fill="#ffffff" fill-opacity="1"><g transform="translate(198.651354, 283.578922)"><g/></g></g><g fill="#ffffff" fill-opacity="1"><g transform="translate(202.572271, 283.578922)"><g><path d="M 1 0 L 2.625 -7.578125 L 1.125 -7.578125 L 1.34375 -8.625 L 2.84375 -8.625 C 2.820312 -8.976562 2.847656 -9.335938 2.921875 -9.703125 C 3.109375 -10.566406 3.472656 -11.207031 4.015625 -11.625 C 4.554688 -12.039062 5.296875 -12.25 6.234375 -12.25 C 6.679688 -12.25 7.066406 -12.191406 7.390625 -12.078125 C 7.710938 -11.960938 7.957031 -11.789062 8.125 -11.5625 L 7.453125 -10.796875 L 7.28125 -10.765625 C 7 -11.035156 6.582031 -11.171875 6.03125 -11.171875 C 5.519531 -11.171875 5.109375 -11.039062 4.796875 -10.78125 C 4.492188 -10.519531 4.289062 -10.148438 4.1875 -9.671875 C 4.125 -9.359375 4.097656 -9.007812 4.109375 -8.625 L 6.859375 -8.625 L 6.640625 -7.578125 L 3.890625 -7.578125 L 2.28125 0 Z M 1 0 "/></g></g></g><g fill="#ffffff" fill-opacity="1"><g transform="translate(208.711397, 283.578922)"><g><path d="M 3.40625 0.171875 C 2.90625 0.171875 2.472656 0.0703125 2.109375 -0.125 C 1.753906 -0.332031 1.484375 -0.617188 1.296875 -0.984375 C 1.109375 -1.347656 1.015625 -1.769531 1.015625 -2.25 C 1.015625 -2.519531 1.046875 -2.804688 1.109375 -3.109375 L 2.28125 -8.625 L 3.5625 -8.625 L 2.34375 -2.90625 C 2.3125 -2.738281 2.296875 -2.566406 2.296875 -2.390625 C 2.296875 -1.953125 2.425781 -1.601562 2.6875 -1.34375 C 2.957031 -1.082031 3.332031 -0.953125 3.8125 -0.953125 C 4.582031 -0.953125 5.242188 -1.203125 5.796875 -1.703125 C 6.347656 -2.210938 6.75 -3.046875 7 -4.203125 L 7.9375 -8.625 L 9.203125 -8.625 L 7.375 0 L 6.171875 0 L 6.46875 -1.359375 L 6.3125 -1.390625 C 5.957031 -0.859375 5.554688 -0.460938 5.109375 -0.203125 C 4.660156 0.046875 4.09375 0.171875 3.40625 0.171875 Z M 3.40625 0.171875 "/></g></g></g><g fill="#ffffff" fill-opacity="1"><g transform="translate(218.498074, 283.578922)"><g><path d="M 0.59375 0 L 2.421875 -8.625 L 3.625 -8.625 L 3.34375 -7.265625 L 3.5 -7.234375 C 4.132812 -8.265625 5.097656 -8.78125 6.390625 -8.78125 C 7.179688 -8.78125 7.796875 -8.570312 8.234375 -8.15625 C 8.679688 -7.75 8.90625 -7.175781 8.90625 -6.4375 C 8.90625 -6.15625 8.875 -5.859375 8.8125 -5.546875 L 7.640625 0 L 6.375 0 L 7.546875 -5.515625 C 7.597656 -5.753906 7.625 -5.984375 7.625 -6.203125 C 7.625 -6.679688 7.476562 -7.046875 7.1875 -7.296875 C 6.90625 -7.546875 6.476562 -7.671875 5.90625 -7.671875 C 5.15625 -7.671875 4.507812 -7.414062 3.96875 -6.90625 C 3.4375 -6.394531 3.046875 -5.566406 2.796875 -4.421875 L 1.859375 0 Z M 0.59375 0 "/></g></g></g><g fill="#ffffff" fill-opacity="1"><g transform="translate(228.421868, 283.578922)"><g/></g></g><g fill="#ffffff" fill-opacity="1"><g transform="translate(118.417965, 305.328921)"><g><path d="M 3.671875 0.171875 C 3.148438 0.171875 2.675781 0.0507812 2.25 -0.1875 C 1.820312 -0.425781 1.476562 -0.785156 1.21875 -1.265625 C 0.957031 -1.753906 0.828125 -2.351562 0.828125 -3.0625 C 0.828125 -3.539062 0.882812 -4.023438 1 -4.515625 C 1.300781 -5.929688 1.832031 -6.992188 2.59375 -7.703125 C 3.363281 -8.421875 4.359375 -8.78125 5.578125 -8.78125 C 6.128906 -8.78125 6.625 -8.648438 7.0625 -8.390625 C 7.5 -8.140625 7.804688 -7.78125 7.984375 -7.3125 L 8.15625 -7.34375 L 8.4375 -8.625 L 9.703125 -8.625 L 7.875 0 L 6.59375 0 L 6.859375 -1.265625 L 6.703125 -1.296875 C 6.398438 -0.828125 5.992188 -0.460938 5.484375 -0.203125 C 4.984375 0.046875 4.378906 0.171875 3.671875 0.171875 Z M 4.15625 -0.984375 C 4.957031 -0.984375 5.65625 -1.253906 6.25 -1.796875 C 6.851562 -2.347656 7.273438 -3.1875 7.515625 -4.3125 C 7.585938 -4.695312 7.625 -5.046875 7.625 -5.359375 C 7.625 -6.085938 7.441406 -6.648438 7.078125 -7.046875 C 6.710938 -7.441406 6.210938 -7.640625 5.578125 -7.640625 C 3.859375 -7.640625 2.757812 -6.53125 2.28125 -4.3125 C 2.207031 -3.957031 2.171875 -3.601562 2.171875 -3.25 C 2.171875 -2.769531 2.253906 -2.359375 2.421875 -2.015625 C 2.585938 -1.671875 2.816406 -1.410156 3.109375 -1.234375 C 3.410156 -1.066406 3.757812 -0.984375 4.15625 -0.984375 Z M 4.15625 -0.984375 "/></g></g></g><g fill="#ffffff" fill-opacity="1"><g transform="translate(128.70452, 305.328921)"><g><path d="M 0.59375 0 L 2.421875 -8.625 L 3.625 -8.625 L 3.34375 -7.265625 L 3.5 -7.234375 C 4.132812 -8.265625 5.097656 -8.78125 6.390625 -8.78125 C 7.179688 -8.78125 7.796875 -8.570312 8.234375 -8.15625 C 8.679688 -7.75 8.90625 -7.175781 8.90625 -6.4375 C 8.90625 -6.15625 8.875 -5.859375 8.8125 -5.546875 L 7.640625 0 L 6.375 0 L 7.546875 -5.515625 C 7.597656 -5.753906 7.625 -5.984375 7.625 -6.203125 C 7.625 -6.679688 7.476562 -7.046875 7.1875 -7.296875 C 6.90625 -7.546875 6.476562 -7.671875 5.90625 -7.671875 C 5.15625 -7.671875 4.507812 -7.414062 3.96875 -6.90625 C 3.4375 -6.394531 3.046875 -5.566406 2.796875 -4.421875 L 1.859375 0 Z M 0.59375 0 "/></g></g></g><g fill="#ffffff" fill-opacity="1"><g transform="translate(138.623972, 305.328921)"><g><path d="M 3.671875 0.171875 C 3.128906 0.171875 2.644531 0.046875 2.21875 -0.203125 C 1.789062 -0.453125 1.453125 -0.820312 1.203125 -1.3125 C 0.960938 -1.800781 0.84375 -2.394531 0.84375 -3.09375 C 0.84375 -3.5625 0.898438 -4.0625 1.015625 -4.59375 C 1.203125 -5.5 1.507812 -6.265625 1.9375 -6.890625 C 2.363281 -7.515625 2.882812 -7.984375 3.5 -8.296875 C 4.125 -8.617188 4.816406 -8.78125 5.578125 -8.78125 C 6.128906 -8.78125 6.625 -8.660156 7.0625 -8.421875 C 7.507812 -8.191406 7.820312 -7.847656 8 -7.390625 L 8.171875 -7.421875 L 9.171875 -12.078125 L 10.4375 -12.078125 L 7.875 0 L 6.59375 0 L 6.859375 -1.265625 L 6.703125 -1.296875 C 6.421875 -0.878906 6.015625 -0.53125 5.484375 -0.25 C 4.953125 0.03125 4.347656 0.171875 3.671875 0.171875 Z M 4.15625 -0.984375 C 4.675781 -0.984375 5.160156 -1.097656 5.609375 -1.328125 C 6.054688 -1.554688 6.441406 -1.90625 6.765625 -2.375 C 7.085938 -2.851562 7.328125 -3.445312 7.484375 -4.15625 C 7.578125 -4.632812 7.625 -5.066406 7.625 -5.453125 C 7.625 -6.203125 7.441406 -6.753906 7.078125 -7.109375 C 6.722656 -7.460938 6.222656 -7.640625 5.578125 -7.640625 C 3.859375 -7.640625 2.757812 -6.53125 2.28125 -4.3125 C 2.1875 -3.851562 2.140625 -3.441406 2.140625 -3.078125 C 2.140625 -2.359375 2.316406 -1.828125 2.671875 -1.484375 C 3.023438 -1.148438 3.519531 -0.984375 4.15625 -0.984375 Z M 4.15625 -0.984375 "/></g></g></g><g fill="#ffffff" fill-opacity="1"><g transform="translate(148.910528, 305.328921)"><g/></g></g><g fill="#ffffff" fill-opacity="1"><g transform="translate(152.831445, 305.328921)"><g><path d="M 2.984375 0.171875 C 2.492188 0.171875 2.039062 0.0976562 1.625 -0.046875 C 1.21875 -0.191406 0.875 -0.390625 0.59375 -0.640625 C 0.3125 -0.890625 0.109375 -1.171875 -0.015625 -1.484375 L 0.90625 -2.265625 L 1.0625 -2.265625 C 1.257812 -1.835938 1.53125 -1.515625 1.875 -1.296875 C 2.226562 -1.085938 2.675781 -0.984375 3.21875 -0.984375 C 3.851562 -0.984375 4.363281 -1.101562 4.75 -1.34375 C 5.132812 -1.59375 5.375 -1.941406 5.46875 -2.390625 C 5.488281 -2.472656 5.5 -2.570312 5.5 -2.6875 C 5.5 -3.207031 5.15625 -3.554688 4.46875 -3.734375 L 3.109375 -4.078125 C 2.566406 -4.210938 2.140625 -4.457031 1.828125 -4.8125 C 1.515625 -5.164062 1.359375 -5.597656 1.359375 -6.109375 C 1.359375 -6.296875 1.375 -6.472656 1.40625 -6.640625 C 1.5 -7.066406 1.691406 -7.4375 1.984375 -7.75 C 2.273438 -8.070312 2.660156 -8.320312 3.140625 -8.5 C 3.628906 -8.6875 4.207031 -8.78125 4.875 -8.78125 C 5.5625 -8.78125 6.101562 -8.671875 6.5 -8.453125 C 6.894531 -8.242188 7.238281 -7.9375 7.53125 -7.53125 L 6.671875 -6.828125 L 6.515625 -6.828125 C 6.304688 -7.140625 6.050781 -7.363281 5.75 -7.5 C 5.457031 -7.644531 5.085938 -7.71875 4.640625 -7.71875 C 4.078125 -7.71875 3.617188 -7.613281 3.265625 -7.40625 C 2.921875 -7.207031 2.707031 -6.914062 2.625 -6.53125 C 2.601562 -6.445312 2.59375 -6.351562 2.59375 -6.25 C 2.59375 -5.988281 2.6875 -5.769531 2.875 -5.59375 C 3.0625 -5.425781 3.363281 -5.285156 3.78125 -5.171875 L 4.953125 -4.859375 C 5.546875 -4.703125 6 -4.445312 6.3125 -4.09375 C 6.625 -3.75 6.78125 -3.328125 6.78125 -2.828125 C 6.78125 -2.671875 6.757812 -2.488281 6.71875 -2.28125 C 6.5625 -1.539062 6.175781 -0.945312 5.5625 -0.5 C 4.945312 -0.0507812 4.085938 0.171875 2.984375 0.171875 Z M 2.984375 0.171875 "/></g></g></g><g fill="#ffffff" fill-opacity="1"><g transform="translate(160.798249, 305.328921)"><g><path d="M 8.40625 -6.046875 C 8.257812 -5.285156 7.832031 -4.671875 7.125 -4.203125 C 6.425781 -3.742188 5.425781 -3.515625 4.125 -3.515625 C 3.507812 -3.515625 2.863281 -3.566406 2.1875 -3.671875 C 2.164062 -3.503906 2.15625 -3.328125 2.15625 -3.140625 C 2.15625 -2.441406 2.332031 -1.90625 2.6875 -1.53125 C 3.050781 -1.164062 3.570312 -0.984375 4.25 -0.984375 C 4.851562 -0.984375 5.359375 -1.09375 5.765625 -1.3125 C 6.171875 -1.539062 6.53125 -1.894531 6.84375 -2.375 L 7.015625 -2.375 L 7.796875 -1.84375 C 7.429688 -1.175781 6.941406 -0.671875 6.328125 -0.328125 C 5.710938 0.00390625 4.941406 0.171875 4.015625 0.171875 C 3.390625 0.171875 2.835938 0.0234375 2.359375 -0.265625 C 1.890625 -0.554688 1.523438 -0.960938 1.265625 -1.484375 C 1.003906 -2.015625 0.875 -2.632812 0.875 -3.34375 C 0.875 -3.769531 0.925781 -4.210938 1.03125 -4.671875 C 1.21875 -5.546875 1.523438 -6.289062 1.953125 -6.90625 C 2.390625 -7.53125 2.921875 -8 3.546875 -8.3125 C 4.171875 -8.625 4.863281 -8.78125 5.625 -8.78125 C 6.238281 -8.78125 6.757812 -8.675781 7.1875 -8.46875 C 7.613281 -8.257812 7.929688 -7.984375 8.140625 -7.640625 C 8.347656 -7.296875 8.453125 -6.921875 8.453125 -6.515625 C 8.453125 -6.359375 8.4375 -6.203125 8.40625 -6.046875 Z M 5.390625 -7.703125 C 4.628906 -7.703125 4.003906 -7.46875 3.515625 -7 C 3.023438 -6.53125 2.648438 -5.78125 2.390625 -4.75 C 2.992188 -4.6875 3.535156 -4.65625 4.015625 -4.65625 C 5.035156 -4.65625 5.789062 -4.785156 6.28125 -5.046875 C 6.78125 -5.304688 7.070312 -5.679688 7.15625 -6.171875 C 7.175781 -6.265625 7.1875 -6.359375 7.1875 -6.453125 C 7.1875 -6.828125 7.023438 -7.128906 6.703125 -7.359375 C 6.390625 -7.585938 5.953125 -7.703125 5.390625 -7.703125 Z M 5.390625 -7.703125 "/></g></g></g><g fill="#ffffff" fill-opacity="1"><g transform="translate(169.983505, 305.328921)"><g><path d="M 4.03125 0.171875 C 3.394531 0.171875 2.835938 0.03125 2.359375 -0.25 C 1.878906 -0.53125 1.503906 -0.925781 1.234375 -1.4375 C 0.972656 -1.957031 0.84375 -2.554688 0.84375 -3.234375 C 0.84375 -3.648438 0.890625 -4.0625 0.984375 -4.46875 C 1.273438 -5.851562 1.835938 -6.914062 2.671875 -7.65625 C 3.515625 -8.40625 4.59375 -8.78125 5.90625 -8.78125 C 6.738281 -8.78125 7.382812 -8.609375 7.84375 -8.265625 C 8.300781 -7.929688 8.632812 -7.472656 8.84375 -6.890625 L 7.890625 -6.296875 L 7.734375 -6.296875 C 7.546875 -6.753906 7.289062 -7.09375 6.96875 -7.3125 C 6.644531 -7.53125 6.207031 -7.640625 5.65625 -7.640625 C 5.132812 -7.640625 4.644531 -7.515625 4.1875 -7.265625 C 3.726562 -7.023438 3.335938 -6.664062 3.015625 -6.1875 C 2.691406 -5.71875 2.457031 -5.144531 2.3125 -4.46875 C 2.21875 -4.007812 2.171875 -3.597656 2.171875 -3.234375 C 2.171875 -2.492188 2.351562 -1.929688 2.71875 -1.546875 C 3.09375 -1.171875 3.613281 -0.984375 4.28125 -0.984375 C 4.851562 -0.984375 5.351562 -1.117188 5.78125 -1.390625 C 6.21875 -1.671875 6.613281 -2.109375 6.96875 -2.703125 L 7.125 -2.703125 L 7.90625 -2.171875 C 7.53125 -1.398438 7.035156 -0.816406 6.421875 -0.421875 C 5.816406 -0.0234375 5.019531 0.171875 4.03125 0.171875 Z M 4.03125 0.171875 "/></g></g></g><g fill="#ffffff" fill-opacity="1"><g transform="translate(178.864154, 305.328921)"><g><path d="M 3.40625 0.171875 C 2.90625 0.171875 2.472656 0.0703125 2.109375 -0.125 C 1.753906 -0.332031 1.484375 -0.617188 1.296875 -0.984375 C 1.109375 -1.347656 1.015625 -1.769531 1.015625 -2.25 C 1.015625 -2.519531 1.046875 -2.804688 1.109375 -3.109375 L 2.28125 -8.625 L 3.5625 -8.625 L 2.34375 -2.90625 C 2.3125 -2.738281 2.296875 -2.566406 2.296875 -2.390625 C 2.296875 -1.953125 2.425781 -1.601562 2.6875 -1.34375 C 2.957031 -1.082031 3.332031 -0.953125 3.8125 -0.953125 C 4.582031 -0.953125 5.242188 -1.203125 5.796875 -1.703125 C 6.347656 -2.210938 6.75 -3.046875 7 -4.203125 L 7.9375 -8.625 L 9.203125 -8.625 L 7.375 0 L 6.171875 0 L 6.46875 -1.359375 L 6.3125 -1.390625 C 5.957031 -0.859375 5.554688 -0.460938 5.109375 -0.203125 C 4.660156 0.046875 4.09375 0.171875 3.40625 0.171875 Z M 3.40625 0.171875 "/></g></g></g><g fill="#ffffff" fill-opacity="1"><g transform="translate(188.650832, 305.328921)"><g><path d="M 0.59375 0 L 2.421875 -8.625 L 3.625 -8.625 L 3.34375 -7.265625 L 3.5 -7.234375 C 3.8125 -7.753906 4.171875 -8.128906 4.578125 -8.359375 C 4.984375 -8.585938 5.484375 -8.703125 6.078125 -8.703125 C 6.378906 -8.703125 6.628906 -8.675781 6.828125 -8.625 C 7.023438 -8.570312 7.191406 -8.488281 7.328125 -8.375 L 6.8125 -7.265625 L 6.640625 -7.234375 C 6.359375 -7.421875 6.007812 -7.515625 5.59375 -7.515625 C 4.175781 -7.515625 3.234375 -6.421875 2.765625 -4.234375 L 1.859375 0 Z M 0.59375 0 "/></g></g></g><g fill="#ffffff" fill-opacity="1"><g transform="translate(195.305457, 305.328921)"><g><path d="M 3.59375 -10.28125 C 3.320312 -10.28125 3.101562 -10.363281 2.9375 -10.53125 C 2.769531 -10.707031 2.6875 -10.925781 2.6875 -11.1875 C 2.6875 -11.445312 2.769531 -11.660156 2.9375 -11.828125 C 3.101562 -11.992188 3.320312 -12.078125 3.59375 -12.078125 C 3.863281 -12.078125 4.082031 -11.992188 4.25 -11.828125 C 4.425781 -11.660156 4.515625 -11.445312 4.515625 -11.1875 C 4.515625 -10.925781 4.425781 -10.707031 4.25 -10.53125 C 4.082031 -10.363281 3.863281 -10.28125 3.59375 -10.28125 Z M 0.578125 0 L 2.40625 -8.625 L 3.6875 -8.625 L 1.859375 0 Z M 0.578125 0 "/></g></g></g><g fill="#ffffff" fill-opacity="1"><g transform="translate(199.577856, 305.328921)"><g><path d="M 0.59375 0 L 2.421875 -8.625 L 3.625 -8.625 L 3.34375 -7.265625 L 3.5 -7.234375 C 4.132812 -8.265625 5.097656 -8.78125 6.390625 -8.78125 C 7.179688 -8.78125 7.796875 -8.570312 8.234375 -8.15625 C 8.679688 -7.75 8.90625 -7.175781 8.90625 -6.4375 C 8.90625 -6.15625 8.875 -5.859375 8.8125 -5.546875 L 7.640625 0 L 6.375 0 L 7.546875 -5.515625 C 7.597656 -5.753906 7.625 -5.984375 7.625 -6.203125 C 7.625 -6.679688 7.476562 -7.046875 7.1875 -7.296875 C 6.90625 -7.546875 6.476562 -7.671875 5.90625 -7.671875 C 5.15625 -7.671875 4.507812 -7.414062 3.96875 -6.90625 C 3.4375 -6.394531 3.046875 -5.566406 2.796875 -4.421875 L 1.859375 0 Z M 0.59375 0 "/></g></g></g><g fill="#ffffff" fill-opacity="1"><g transform="translate(209.497308, 305.328921)"><g><path d="M 2.75 3.65625 C 2.019531 3.65625 1.398438 3.566406 0.890625 3.390625 C 0.378906 3.210938 -0.00390625 2.957031 -0.265625 2.625 C -0.535156 2.300781 -0.671875 1.925781 -0.671875 1.5 C -0.671875 1.375 -0.648438 1.210938 -0.609375 1.015625 C -0.523438 0.609375 -0.300781 0.265625 0.0625 -0.015625 C 0.4375 -0.296875 0.910156 -0.5 1.484375 -0.625 L 1.515625 -0.796875 C 1.328125 -0.921875 1.1875 -1.0625 1.09375 -1.21875 C 1 -1.375 0.953125 -1.566406 0.953125 -1.796875 C 0.953125 -1.921875 0.96875 -2.0625 1 -2.21875 C 1.113281 -2.800781 1.609375 -3.164062 2.484375 -3.3125 L 2.515625 -3.484375 C 1.878906 -3.859375 1.5625 -4.441406 1.5625 -5.234375 C 1.5625 -5.484375 1.59375 -5.753906 1.65625 -6.046875 C 1.769531 -6.578125 1.984375 -7.046875 2.296875 -7.453125 C 2.617188 -7.867188 3.035156 -8.191406 3.546875 -8.421875 C 4.066406 -8.660156 4.675781 -8.78125 5.375 -8.78125 C 6.09375 -8.78125 6.664062 -8.625 7.09375 -8.3125 C 7.3125 -8.507812 7.488281 -8.722656 7.625 -8.953125 C 7.769531 -9.179688 7.890625 -9.445312 7.984375 -9.75 L 8.171875 -9.84375 L 9.15625 -9.59375 C 9.007812 -9.101562 8.800781 -8.707031 8.53125 -8.40625 C 8.269531 -8.101562 7.929688 -7.878906 7.515625 -7.734375 L 7.484375 -7.578125 C 7.796875 -7.273438 7.953125 -6.890625 7.953125 -6.421875 C 7.953125 -6.253906 7.925781 -6.039062 7.875 -5.78125 C 7.757812 -5.238281 7.523438 -4.75 7.171875 -4.3125 C 6.816406 -3.882812 6.375 -3.546875 5.84375 -3.296875 C 5.320312 -3.046875 4.75 -2.921875 4.125 -2.921875 C 4.050781 -2.921875 3.921875 -2.925781 3.734375 -2.9375 C 3.523438 -2.945312 3.375 -2.953125 3.28125 -2.953125 C 2.96875 -2.953125 2.710938 -2.867188 2.515625 -2.703125 C 2.316406 -2.535156 2.21875 -2.320312 2.21875 -2.0625 C 2.21875 -1.851562 2.300781 -1.6875 2.46875 -1.5625 C 2.632812 -1.445312 2.875 -1.382812 3.1875 -1.375 L 5.0625 -1.265625 C 5.8125 -1.234375 6.378906 -1.054688 6.765625 -0.734375 C 7.148438 -0.410156 7.34375 0.0234375 7.34375 0.578125 C 7.34375 0.765625 7.316406 0.960938 7.265625 1.171875 C 7.148438 1.722656 6.9375 2.175781 6.625 2.53125 C 6.320312 2.894531 5.859375 3.171875 5.234375 3.359375 C 4.609375 3.554688 3.78125 3.65625 2.75 3.65625 Z M 4.359375 -4.015625 C 4.972656 -4.015625 5.476562 -4.171875 5.875 -4.484375 C 6.28125 -4.804688 6.539062 -5.253906 6.65625 -5.828125 C 6.695312 -6.035156 6.71875 -6.21875 6.71875 -6.375 C 6.71875 -6.800781 6.582031 -7.125 6.3125 -7.34375 C 6.050781 -7.570312 5.660156 -7.6875 5.140625 -7.6875 C 4.523438 -7.6875 4.019531 -7.523438 3.625 -7.203125 C 3.238281 -6.890625 2.984375 -6.429688 2.859375 -5.828125 C 2.816406 -5.628906 2.796875 -5.457031 2.796875 -5.3125 C 2.796875 -4.894531 2.925781 -4.570312 3.1875 -4.34375 C 3.457031 -4.125 3.847656 -4.015625 4.359375 -4.015625 Z M 2.75 2.5625 C 3.394531 2.5625 3.945312 2.5 4.40625 2.375 C 4.875 2.25 5.238281 2.078125 5.5 1.859375 C 5.757812 1.648438 5.914062 1.410156 5.96875 1.140625 C 6 1.035156 6.015625 0.914062 6.015625 0.78125 C 6.015625 0.519531 5.914062 0.320312 5.71875 0.1875 C 5.519531 0.0507812 5.203125 -0.03125 4.765625 -0.0625 L 2.84375 -0.203125 C 2.800781 -0.203125 2.753906 -0.207031 2.703125 -0.21875 C 2.648438 -0.226562 2.601562 -0.234375 2.5625 -0.234375 C 2 -0.222656 1.566406 -0.101562 1.265625 0.125 C 0.960938 0.351562 0.769531 0.664062 0.6875 1.0625 C 0.664062 1.144531 0.65625 1.238281 0.65625 1.34375 C 0.65625 1.738281 0.84375 2.039062 1.21875 2.25 C 1.601562 2.457031 2.113281 2.5625 2.75 2.5625 Z M 2.75 2.5625 "/></g></g></g><g fill="#ffffff" fill-opacity="1"><g transform="translate(218.323277, 305.328921)"><g/></g></g><g fill="#ffffff" fill-opacity="1"><g transform="translate(222.244195, 305.328921)"><g><path d="M 0.59375 0 L 2.421875 -8.625 L 3.625 -8.625 L 3.34375 -7.265625 L 3.5 -7.234375 C 3.8125 -7.753906 4.171875 -8.128906 4.578125 -8.359375 C 4.984375 -8.585938 5.484375 -8.703125 6.078125 -8.703125 C 6.378906 -8.703125 6.628906 -8.675781 6.828125 -8.625 C 7.023438 -8.570312 7.191406 -8.488281 7.328125 -8.375 L 6.8125 -7.265625 L 6.640625 -7.234375 C 6.359375 -7.421875 6.007812 -7.515625 5.59375 -7.515625 C 4.175781 -7.515625 3.234375 -6.421875 2.765625 -4.234375 L 1.859375 0 Z M 0.59375 0 "/></g></g></g><g fill="#ffffff" fill-opacity="1"><g transform="translate(228.898819, 305.328921)"><g><path d="M 3.40625 0.171875 C 2.90625 0.171875 2.472656 0.0703125 2.109375 -0.125 C 1.753906 -0.332031 1.484375 -0.617188 1.296875 -0.984375 C 1.109375 -1.347656 1.015625 -1.769531 1.015625 -2.25 C 1.015625 -2.519531 1.046875 -2.804688 1.109375 -3.109375 L 2.28125 -8.625 L 3.5625 -8.625 L 2.34375 -2.90625 C 2.3125 -2.738281 2.296875 -2.566406 2.296875 -2.390625 C 2.296875 -1.953125 2.425781 -1.601562 2.6875 -1.34375 C 2.957031 -1.082031 3.332031 -0.953125 3.8125 -0.953125 C 4.582031 -0.953125 5.242188 -1.203125 5.796875 -1.703125 C 6.347656 -2.210938 6.75 -3.046875 7 -4.203125 L 7.9375 -8.625 L 9.203125 -8.625 L 7.375 0 L 6.171875 0 L 6.46875 -1.359375 L 6.3125 -1.390625 C 5.957031 -0.859375 5.554688 -0.460938 5.109375 -0.203125 C 4.660156 0.046875 4.09375 0.171875 3.40625 0.171875 Z M 3.40625 0.171875 "/></g></g></g><g fill="#ffffff" fill-opacity="1"><g transform="translate(238.685497, 305.328921)"><g><path d="M 0.59375 0 L 2.421875 -8.625 L 3.625 -8.625 L 3.34375 -7.265625 L 3.5 -7.234375 C 4.132812 -8.265625 5.097656 -8.78125 6.390625 -8.78125 C 7.179688 -8.78125 7.796875 -8.570312 8.234375 -8.15625 C 8.679688 -7.75 8.90625 -7.175781 8.90625 -6.4375 C 8.90625 -6.15625 8.875 -5.859375 8.8125 -5.546875 L 7.640625 0 L 6.375 0 L 7.546875 -5.515625 C 7.597656 -5.753906 7.625 -5.984375 7.625 -6.203125 C 7.625 -6.679688 7.476562 -7.046875 7.1875 -7.296875 C 6.90625 -7.546875 6.476562 -7.671875 5.90625 -7.671875 C 5.15625 -7.671875 4.507812 -7.414062 3.96875 -6.90625 C 3.4375 -6.394531 3.046875 -5.566406 2.796875 -4.421875 L 1.859375 0 Z M 0.59375 0 "/></g></g></g><g fill="#ffffff" fill-opacity="1"><g transform="translate(248.604949, 305.328921)"><g><path d="M 2.984375 0.171875 C 2.492188 0.171875 2.039062 0.0976562 1.625 -0.046875 C 1.21875 -0.191406 0.875 -0.390625 0.59375 -0.640625 C 0.3125 -0.890625 0.109375 -1.171875 -0.015625 -1.484375 L 0.90625 -2.265625 L 1.0625 -2.265625 C 1.257812 -1.835938 1.53125 -1.515625 1.875 -1.296875 C 2.226562 -1.085938 2.675781 -0.984375 3.21875 -0.984375 C 3.851562 -0.984375 4.363281 -1.101562 4.75 -1.34375 C 5.132812 -1.59375 5.375 -1.941406 5.46875 -2.390625 C 5.488281 -2.472656 5.5 -2.570312 5.5 -2.6875 C 5.5 -3.207031 5.15625 -3.554688 4.46875 -3.734375 L 3.109375 -4.078125 C 2.566406 -4.210938 2.140625 -4.457031 1.828125 -4.8125 C 1.515625 -5.164062 1.359375 -5.597656 1.359375 -6.109375 C 1.359375 -6.296875 1.375 -6.472656 1.40625 -6.640625 C 1.5 -7.066406 1.691406 -7.4375 1.984375 -7.75 C 2.273438 -8.070312 2.660156 -8.320312 3.140625 -8.5 C 3.628906 -8.6875 4.207031 -8.78125 4.875 -8.78125 C 5.5625 -8.78125 6.101562 -8.671875 6.5 -8.453125 C 6.894531 -8.242188 7.238281 -7.9375 7.53125 -7.53125 L 6.671875 -6.828125 L 6.515625 -6.828125 C 6.304688 -7.140625 6.050781 -7.363281 5.75 -7.5 C 5.457031 -7.644531 5.085938 -7.71875 4.640625 -7.71875 C 4.078125 -7.71875 3.617188 -7.613281 3.265625 -7.40625 C 2.921875 -7.207031 2.707031 -6.914062 2.625 -6.53125 C 2.601562 -6.445312 2.59375 -6.351562 2.59375 -6.25 C 2.59375 -5.988281 2.6875 -5.769531 2.875 -5.59375 C 3.0625 -5.425781 3.363281 -5.285156 3.78125 -5.171875 L 4.953125 -4.859375 C 5.546875 -4.703125 6 -4.445312 6.3125 -4.09375 C 6.625 -3.75 6.78125 -3.328125 6.78125 -2.828125 C 6.78125 -2.671875 6.757812 -2.488281 6.71875 -2.28125 C 6.5625 -1.539062 6.175781 -0.945312 5.5625 -0.5 C 4.945312 -0.0507812 4.085938 0.171875 2.984375 0.171875 Z M 2.984375 0.171875 "/></g></g></g></svg>